<?xml version="1.0" encoding="UTF-8" standalone="no"?>
<!-- Created with Inkscape (http://www.inkscape.org/) -->

<svg
   width="86.408623mm"
   height="83.550728mm"
   viewBox="0 0 86.408623 83.550726"
   version="1.1"
   id="svg1"
   xml:space="preserve"
   inkscape:version="1.4.2 (f4327f4, 2025-05-13)"
   sodipodi:docname="drawing.svg"
   xmlns:inkscape="http://www.inkscape.org/namespaces/inkscape"
   xmlns:sodipodi="http://sodipodi.sourceforge.net/DTD/sodipodi-0.dtd"
   xmlns="http://www.w3.org/2000/svg"
   xmlns:svg="http://www.w3.org/2000/svg"><sodipodi:namedview
     id="namedview1"
     pagecolor="#ffffff"
     bordercolor="#000000"
     borderopacity="0.25"
     inkscape:showpageshadow="2"
     inkscape:pageopacity="0.0"
     inkscape:pagecheckerboard="0"
     inkscape:deskcolor="#d1d1d1"
     inkscape:document-units="mm"
     inkscape:zoom="0.69753788"
     inkscape:cx="212.89166"
     inkscape:cy="185.653"
     inkscape:window-width="1920"
     inkscape:window-height="1001"
     inkscape:window-x="-9"
     inkscape:window-y="-9"
     inkscape:window-maximized="1"
     inkscape:current-layer="layer1" /><defs
     id="defs1" /><g
     inkscape:label="Layer 1"
     inkscape:groupmode="layer"
     id="layer1"
     transform="translate(-65.288692,-89.619015)"><path
       style="fill:#a39c9c"
       d="m 98.678729,172.93614 c -1.54796,-0.62468 -1.890094,-2.74521 -0.643975,-3.99133 0.629504,-0.62951 0.998704,-0.7734 1.984376,-0.7734 0.90003,0 1.21098,0.10191 1.21098,0.39688 0,0.28396 -0.28943,0.39687 -1.01733,0.39687 -1.216624,0 -1.89309,0.62671 -1.89309,1.75386 0,0.98384 0.423359,1.42114 1.375833,1.42114 0.876827,0 1.041697,-0.76461 0.211667,-0.98167 -0.914289,-0.23909 -0.62643,-0.87041 0.39688,-0.87041 h 0.92604 v 1.29206 c 0,1.11625 -0.081,1.31376 -0.59532,1.45159 -0.776741,0.20816 -1.262143,0.18444 -1.956061,-0.0956 z m -20.202789,-1.9866 v -1.98438 h -0.79375 c -0.529167,0 -0.79375,-0.13229 -0.79375,-0.39687 0,-0.3175 0.396875,-0.39688 1.984375,-0.39688 1.5875,0 1.984375,0.0794 1.984375,0.39688 0,0.24694 -0.249884,0.39687 -0.661458,0.39687 -0.64676,0 -0.661459,0.0441 -0.661459,1.98438 0,1.80798 -0.04704,1.98437 -0.529166,1.98437 -0.48213,0 -0.529167,-0.17639 -0.529167,-1.98437 z m 8.202083,1.73671 c 0,-0.13622 0.375816,-1.20778 0.835147,-2.38125 0.585291,-1.49527 0.96869,-2.13359 1.28152,-2.13359 0.31283,0 0.696229,0.63832 1.28152,2.13359 0.459331,1.17347 0.835147,2.24503 0.835147,2.38125 0,0.45819 -0.772419,0.25273 -1.058334,-0.28151 -0.184266,-0.3443 -0.55399,-0.52916 -1.058333,-0.52916 -0.504343,0 -0.874067,0.18486 -1.058333,0.52916 -0.285915,0.53424 -1.058334,0.7397 -1.058334,0.28151 z m 2.541849,-2.02294 c -0.08833,-0.23018 -0.164385,-0.5576 -0.169013,-0.7276 -0.0046,-0.17 -0.179408,-0.0832 -0.3884,0.19291 -0.427783,0.56515 -0.302212,0.95321 0.308445,0.95321 0.26477,0 0.35279,-0.14796 0.248968,-0.41852 z m 18.889398,-0.13005 c 0,-2.1436 0.0496,-2.39119 0.46302,-2.3123 0.38121,0.0727 0.47676,0.42679 0.54076,2.00378 l 0.0777,1.91542 h 1.04674 c 0.75405,0 1.04674,0.11098 1.04674,0.39688 0,0.30868 -0.35277,0.39687 -1.5875,0.39687 h -1.5875 z m 9.78959,0.0194 c 0,-1.94028 0.0735,-2.38125 0.39687,-2.38125 0.32338,0 0.39688,0.44097 0.39688,2.38125 0,1.94028 -0.0735,2.38125 -0.39688,2.38125 -0.32338,0 -0.39687,-0.44097 -0.39687,-2.38125 z m 7.67291,0 c 0,-2.12048 0.0524,-2.38125 0.47832,-2.38125 0.27604,0 0.94738,0.63897 1.5875,1.51094 0.61005,0.83102 1.12483,1.33703 1.14395,1.12448 0.0191,-0.21255 0.0489,-0.86075 0.0661,-1.44043 0.0232,-0.77756 0.15282,-1.07755 0.49441,-1.14388 0.41355,-0.0803 0.46302,0.16654 0.46302,2.31074 0,2.18488 -0.0453,2.40065 -0.50435,2.40065 -0.30289,0 -0.91059,-0.55486 -1.52135,-1.38906 l -1.01701,-1.38906 -0.08,1.38906 c -0.0675,1.17288 -0.16018,1.38906 -0.59532,1.38906 -0.47255,0 -0.51534,-0.19768 -0.51534,-2.38125 z m 11.1125,0 v -2.38125 h 1.5875 c 1.2066,0 1.5875,0.0916 1.5875,0.38166 0,0.25972 -0.35855,0.40766 -1.12219,0.46302 -0.80098,0.0581 -1.14641,0.20905 -1.20677,0.52745 -0.0653,0.34453 0.145,0.465 0.92376,0.52917 1.38255,0.11391 1.39485,0.84484 0.0161,0.95894 -0.77728,0.0643 -0.99219,0.19328 -0.99219,0.59532 0,0.43184 0.18874,0.51319 1.19063,0.51319 0.88194,0 1.19062,0.10289 1.19062,0.39688 0,0.30868 -0.35277,0.39687 -1.5875,0.39687 h -1.5875 z m -56.509133,-9.24224 c -1.750871,-1.00425 -3.022114,-2.45454 -3.022114,-3.44776 0,-0.88297 0.837855,-1.66096 2.313092,-2.14783 0.873082,-0.28815 0.999088,-0.26404 1.435223,0.27456 0.262961,0.32475 0.605008,1.06171 0.760104,1.63769 0.305316,1.13386 1.079014,2.07766 1.70319,2.07766 0.214927,0 0.589344,-0.30305 0.832038,-0.67345 0.759523,-1.15918 0.123813,-2.56452 -2.148899,-4.7505 -2.421584,-2.32918 -3.040392,-3.33494 -3.041675,-4.94372 -0.0013,-1.60113 0.292001,-2.33397 1.444623,-3.60978 1.267594,-1.40308 3.247429,-2.22828 5.346119,-2.22828 2.011988,0 3.196567,0.60458 3.872125,1.97623 0.643138,1.30582 0.257199,2.7397 -1.12987,4.19781 -1.45721,1.53185 -1.892156,1.34692 -1.9485,-0.82848 -0.04357,-1.682 -0.621675,-3.16274 -1.234791,-3.16274 -0.373491,0 -1.059029,1.45856 -1.059029,2.25321 0,1.01684 0.402329,1.64346 2.375549,3.69991 2.02752,2.11304 2.533601,3.2592 2.256118,5.10959 -0.662887,4.42044 -5.032797,6.69987 -8.753303,4.56588 z m 16.29247,0.50073 c -4.62155,-0.74419 -6.500087,-4.02196 -5.030988,-8.77835 0.922201,-2.98574 3.899942,-6.74344 6.34619,-8.00844 2.680971,-1.38639 6.191981,-1.93437 6.542431,-1.02111 0.23213,0.60493 -0.69344,1.2971 -2.49302,1.86437 -1.908947,0.60175 -3.78529,2.28183 -4.755975,4.25852 -0.668677,1.36168 -0.74093,1.77973 -0.74093,4.28694 0,3.11648 0.406895,4.21868 1.765078,4.78126 1.036176,0.42919 1.922707,0.12991 3.098717,-1.0461 2.01428,-2.01428 2.43617,-5.12289 1.07416,-7.91466 -0.46814,-0.95955 -0.74334,-1.86472 -0.65325,-2.14858 0.16981,-0.53501 1.7175,-1.69227 2.81118,-2.10203 0.96586,-0.36186 1.88501,0.16085 2.27408,1.29325 0.50303,1.46413 0.42141,5.25884 -0.15281,7.10381 -1.56528,5.02924 -5.76821,8.1262 -10.084863,7.43112 z m 13.166343,-0.40391 c -1.61072,-0.87397 -1.91817,-3.17409 -0.98793,-7.39104 0.95953,-4.34977 2.64202,-8.95845 3.59183,-9.83877 0.7578,-0.70236 2.79659,-1.06139 3.69715,-0.65106 0.83204,0.3791 0.83021,1.19176 -0.007,3.30096 -1.53448,3.86379 -2.91571,9.70241 -2.29528,9.70241 0.39564,0 3.19885,-3.83109 4.61313,-6.30468 1.99506,-3.48937 2.57454,-4.13566 3.78876,-4.2256 1.59165,-0.1179 1.75092,0.21908 1.42952,3.02449 -0.36762,3.20889 -0.32659,5.91724 0.12774,8.43184 0.59736,3.30618 0.5726,3.44249 -0.71923,3.95938 -2.67019,1.0684 -3.95449,-0.18286 -4.85195,-4.72715 l -0.15162,-0.76776 -0.94474,1.42922 c -2.56828,3.88536 -5.0558,5.26998 -7.28993,4.05776 z m 15.87168,0.12173 c -0.27362,-0.15543 -0.46302,-0.57605 -0.46302,-1.02826 0,-0.85479 1.28149,-5.21753 3.09396,-10.53317 0.66002,-1.93572 1.13294,-3.58659 1.05092,-3.66861 -0.082,-0.082 -0.52606,-0.0177 -0.98677,0.14289 -1.00681,0.35097 -1.30603,0.20799 -1.30603,-0.62411 0,-1.4398 2.27879,-2.32134 5.95313,-2.30293 3.643,0.0182 5.83903,1.01281 6.77189,3.06691 0.61244,1.34855 0.63171,2.59487 0.0662,4.27853 -1.12457,3.34789 -3.94173,5.66952 -6.87962,5.66952 -1.54907,0 -1.41249,-0.65143 0.51714,-2.46658 1.35495,-1.27456 1.77779,-1.85662 1.92034,-2.6434 0.27208,-1.50168 -0.0229,-3.05807 -0.72058,-3.80207 l -0.617,-0.65796 -0.60041,1.94073 c -0.33023,1.06741 -1.14099,3.77778 -1.80168,6.02304 -0.66069,2.24527 -1.44233,4.42085 -1.73697,4.83464 -0.88529,1.24326 -3.37146,2.27638 -4.26146,1.77083 z m -57.480732,-5.2307 c -1.128261,-0.38808 -1.411598,-0.6318 -1.925611,-1.65636 -0.770921,-1.53663 -1.060394,-3.76059 -0.566882,-4.35524 0.46601,-0.5615 2.420689,-0.35678 3.926045,0.41119 1.17721,0.60057 1.902249,1.74961 2.432326,3.85473 0.300957,1.19521 0.284616,1.29724 -0.281132,1.75535 -0.733671,0.59409 -1.838131,0.59111 -3.584746,-0.01 z m 77.456772,0.187 c -0.79999,-0.40446 -0.78778,-1.78371 0.0312,-3.5274 0.75042,-1.59766 1.2918,-2.10911 2.7933,-2.63887 1.69348,-0.59749 2.57488,-0.52364 3.08749,0.2587 0.36805,0.56172 0.3882,0.85361 0.13238,1.91823 -0.58499,2.43453 -1.04186,3.15228 -2.31634,3.63901 -1.53978,0.58805 -2.98858,0.7242 -3.72806,0.35033 z M 104.20338,137.7151 c -7.177754,-1.19573 -13.912664,-6.46841 -17.003122,-13.31152 -2.27011,-5.02664 -2.545317,-8.96873 -0.875616,-12.54241 1.390797,-2.97674 7.120562,-7.59021 10.128382,-8.15514 0.80701,-0.15157 0.9955,-0.0705 1.644838,0.70728 1.025929,1.2289 2.774548,5.33701 3.178748,7.46799 l 0.33876,1.78594 h 14.70576 c 11.93783,0 14.79782,0.0673 15.1949,0.35768 1.05099,0.76849 -0.10553,7.5861 -1.88309,11.10076 -1.7821,3.52363 -4.85761,6.96997 -8.16925,9.15425 -2.25353,1.48638 -5.59391,2.84272 -8.2549,3.35185 -2.14342,0.41011 -6.78594,0.45306 -9.00541,0.0833 z m 21.76527,-26.60285 c -2.30637,-1.21205 -3.59685,-3.29337 -3.7799,-6.09631 -0.10366,-1.58718 -0.0304,-2.08473 0.43979,-2.9868 l 0.56417,-1.08238 -2.18391,-2.189701 c -2.51474,-2.521409 -4.64453,-4.003546 -7.3913,-5.14366 -2.04476,-0.848727 -5.39435,-1.64199 -6.93338,-1.64199 -1.47897,0 -2.31537,-1.317948 -1.34662,-2.121937 0.83014,-0.688955 5.81705,0.243427 9.51865,1.779662 2.69489,1.118433 5.74591,3.34473 8.27123,6.03544 1.66892,1.778224 2.53437,2.508916 2.97161,2.508916 0.33931,0 1.1296,0.30045 1.7562,0.66767 2.81699,1.65086 4.23669,6.13916 2.82632,8.93518 -0.79727,1.58055 -3.03848,2.21585 -4.71286,1.33591 z m 2.63083,-2.53096 c 1.21564,-1.73558 -0.778,-6.02655 -2.80002,-6.02655 -2.16153,0 -1.96872,4.00228 0.28413,5.89793 1.03473,0.87067 1.9629,0.91812 2.51589,0.12862 z"
       id="path7" /><path
       style="fill:#f4b71e"
       d="m 78.47594,170.94954 c 0,-1.94028 -0.0147,-1.98438 -0.661458,-1.98438 -0.411575,0 -0.661459,-0.14993 -0.661459,-0.39687 0,-0.31498 0.382176,-0.39688 1.852084,-0.39688 1.469907,0 1.852083,0.0819 1.852083,0.39688 0,0.26458 -0.264583,0.39687 -0.79375,0.39687 h -0.79375 v 1.98438 c 0,1.5875 -0.07937,1.98437 -0.396875,1.98437 -0.3175,0 -0.396875,-0.39687 -0.396875,-1.98437 z m 8.202083,1.90324 c 0,-0.0446 0.391771,-1.08642 0.870601,-2.31511 0.523673,-1.34375 1.02022,-2.23397 1.246066,-2.23397 0.225846,0 0.722393,0.89022 1.246066,2.23397 1.010048,2.5918 0.967922,2.39624 0.516195,2.39624 -0.194923,0 -0.490026,-0.29766 -0.655786,-0.66146 -0.225357,-0.4946 -0.504464,-0.66146 -1.106475,-0.66146 -0.602011,0 -0.881118,0.16686 -1.106475,0.66146 -0.16576,0.3638 -0.460863,0.66146 -0.655786,0.66146 -0.194923,0 -0.354406,-0.0365 -0.354406,-0.0811 z m 2.627237,-2.10168 c -0.01023,-0.1819 -0.110592,-0.5662 -0.223032,-0.854 -0.199802,-0.5114 -0.211375,-0.5103 -0.51057,0.0488 -0.440683,0.82342 -0.379319,1.13597 0.223032,1.13597 0.291042,0 0.520798,-0.14883 0.51057,-0.33073 z m 8.829669,1.78561 c -1.247181,-0.87356 -0.966148,-3.23644 0.473473,-3.9809 0.93422,-0.48311 2.357118,-0.50752 2.357118,-0.0404 0,0.21903 -0.34872,0.34396 -0.96013,0.34396 -1.68995,0 -2.569842,1.86752 -1.421117,3.01625 0.291042,0.29104 0.826823,0.52916 1.190625,0.52916 0.529172,0 0.661462,-0.13229 0.661462,-0.66145 0,-0.48507 -0.14111,-0.66146 -0.52917,-0.66146 -0.291042,0 -0.529167,-0.11906 -0.529167,-0.26459 0,-0.14552 0.416719,-0.26458 0.926047,-0.26458 0.92114,0 0.92604,0.006 0.92604,1.19063 v 1.19062 h -1.264048 c -0.695842,0 -1.518959,-0.17855 -1.831133,-0.3972 z m 10.030191,-1.89655 c 0.0499,-1.49683 0.18737,-2.33049 0.39572,-2.39948 0.22695,-0.0752 0.34171,0.49247 0.39687,1.96302 l 0.0776,2.06875 1.13051,0.0817 c 1.60931,0.11623 1.1078,0.5798 -0.62726,0.5798 h -1.4499 z m 9.78958,0 c 0.0514,-1.54269 0.18474,-2.32962 0.40718,-2.4033 0.24835,-0.0823 0.33073,0.48908 0.33073,2.29375 0,1.9869 -0.0705,2.4033 -0.40718,2.4033 -0.34108,0 -0.39477,-0.37234 -0.33073,-2.29375 z m 7.72864,1.93826 c -0.26544,-0.6917 0.0123,-4.22961 0.34057,-4.33812 0.17591,-0.0581 0.83076,0.61052 1.45521,1.48593 0.62445,0.87541 1.21872,1.59807 1.3206,1.60592 0.10187,0.008 0.22094,-0.64195 0.26458,-1.44399 0.1239,-2.27707 0.59935,-1.72511 0.68496,0.79519 0.0685,2.0168 0.0271,2.25056 -0.39842,2.25056 -0.28581,0 -0.89563,-0.62915 -1.53166,-1.5802 -0.58123,-0.86911 -1.14608,-1.58349 -1.25522,-1.5875 -0.10914,-0.004 -0.19844,0.70708 -0.19844,1.5802 0,1.47293 -0.34833,2.10201 -0.68218,1.23201 z m 11.05678,-1.95961 0.0765,-2.31511 1.38906,-0.08 c 1.11346,-0.0641 1.38906,0.002 1.38906,0.33073 0,0.30276 -0.27814,0.4107 -1.05833,0.4107 -0.9525,0 -1.05834,0.0661 -1.05834,0.66146 0,0.57956 0.11466,0.66146 0.92605,0.66146 0.50932,0 0.92604,0.11906 0.92604,0.26458 0,0.14552 -0.42463,0.26458 -0.94362,0.26458 -0.8733,0 -0.93738,0.0542 -0.85989,0.72761 0.0749,0.65106 0.202,0.73616 1.20819,0.80896 1.71284,0.12393 1.34064,0.5801 -0.47332,0.5801 h -1.5978 z m -55.090893,-8.78003 c -1.86676,-0.56784 -4.496204,-2.88177 -4.496204,-3.95669 0,-0.59284 1.343488,-1.81019 2.248423,-2.03731 1.15546,-0.29 1.52081,-0.0272 2.024918,1.45662 0.584393,1.72013 1.150401,2.40334 1.991047,2.40334 0.822727,0 1.267796,-0.97665 1.027873,-2.25555 -0.137813,-0.73461 -0.721036,-1.53401 -2.379424,-3.26139 -2.692403,-2.80442 -3.162484,-3.65 -2.995462,-5.38823 0.176072,-1.83242 1.300229,-3.29379 3.365091,-4.37451 2.675524,-1.40035 5.471791,-1.14548 6.865006,0.6257 0.608275,0.7733 0.724842,2.18188 0.256197,3.09586 -0.490534,0.95666 -1.892106,2.29771 -2.401404,2.29771 -0.404177,0 -0.477862,-0.23298 -0.481165,-1.52136 -0.0041,-1.61217 -0.365095,-2.60968 -1.113462,-3.07704 -0.669144,-0.41788 -1.245119,0.48434 -1.255473,1.96659 -0.0092,1.31984 0.963942,2.96164 2.258118,3.80962 0.372383,0.24399 1.026783,0.99508 1.454222,1.66908 2.635763,4.15617 -1.69511,9.96908 -6.368301,8.54756 z m 13.684238,-0.39365 c -1.585265,-0.42631 -3.072975,-1.5933 -3.758209,-2.94801 -1.899807,-3.75592 1.577042,-10.98601 6.479851,-13.4748 2.433443,-1.23528 5.202533,-1.77394 6.085413,-1.18376 0.59768,0.39952 -0.70905,1.44154 -2.52599,2.01428 -1.738446,0.548 -3.299998,1.80562 -4.245718,3.41937 -2.475015,4.2233 -1.51583,10.16795 1.640624,10.16795 2.142254,0 4.629644,-3.89641 4.257694,-6.66952 -0.0766,-0.57071 -0.45772,-1.66722 -0.84704,-2.4367 -0.93679,-1.85155 -0.81319,-2.42347 0.75714,-3.50338 1.43619,-0.98767 2.26603,-1.10873 2.88679,-0.42113 1.21298,1.34359 1.27378,5.86526 0.11712,8.71057 -2.11995,5.21497 -6.17769,7.58098 -10.847675,6.32513 z m 14.975265,0.0873 c -2.5611,-0.74918 -2.768,-3.53265 -0.77661,-10.448 1.209,-4.1984 2.39212,-6.83508 3.24045,-7.2216 0.86388,-0.39361 3.08506,-0.38096 3.48587,0.0198 0.46689,0.46689 0.41027,0.77939 -0.61793,3.4107 -1.19101,3.04793 -2.64509,8.9367 -2.29351,9.28828 0.1656,0.1656 0.50939,-0.009 0.97016,-0.49302 0.71614,-0.75209 4.01488,-5.66047 5.64226,-8.39542 0.71817,-1.20695 1.02938,-1.49191 1.78394,-1.63347 1.73154,-0.32483 1.70779,-0.40183 1.53209,4.96753 -0.13166,4.02357 -0.0796,5.23593 0.30835,7.17968 0.56346,2.82313 0.40933,3.1075 -1.78269,3.28928 -1.35085,0.11202 -1.45414,0.0743 -2.23599,-0.81615 -0.78914,-0.89878 -1.40168,-2.776 -1.40168,-4.29564 0,-0.88784 -0.32095,-0.813 -0.90691,0.21146 -2.19843,3.8436 -4.67312,5.60191 -6.9478,4.93652 z m 14.88522,-0.41822 c -0.26234,-0.68365 0.24794,-2.63274 2.34314,-8.95007 1.0618,-3.20146 1.88648,-5.90028 1.83262,-5.99737 -0.0539,-0.0971 -0.52799,-0.0578 -1.05361,0.0873 -1.23023,0.33968 -1.66701,-0.0159 -1.16707,-0.95 0.50858,-0.95028 2.1891,-1.52162 4.92081,-1.67296 3.08587,-0.17097 4.97396,0.33551 6.43417,1.72595 1.42549,1.35737 1.77939,2.73185 1.24273,4.82662 -0.72358,2.82443 -2.47812,4.93206 -4.84205,5.81653 -1.67884,0.62813 -2.53725,0.66963 -2.97368,0.14377 -0.34123,-0.41116 0.0232,-0.85339 1.82877,-2.2193 1.43515,-1.08567 2.10915,-3.18289 1.61395,-5.02194 -0.33112,-1.22969 -1.25216,-2.19604 -1.58295,-1.66082 -0.11844,0.19165 -0.77684,2.21098 -1.46311,4.4874 -0.68626,2.27642 -1.48443,4.91285 -1.77371,5.85874 -0.57507,1.88036 -1.47361,3.04084 -2.79088,3.60446 -1.1771,0.50365 -2.35964,0.46759 -2.56913,-0.0784 z m -57.57601,-5.17976 c -1.302317,-0.65672 -1.717293,-1.32072 -2.105842,-3.36953 -0.285065,-1.50314 -0.06453,-2.24528 0.743427,-2.50171 0.575663,-0.18271 2.72041,0.42788 3.655794,1.04076 1.415248,0.92731 2.562015,4.86976 1.531523,5.26519 -0.892348,0.34243 -2.688637,0.13828 -3.824902,-0.43471 z m 77.53241,0.065 c -0.34199,-0.63902 0.0348,-2.27602 0.86757,-3.76918 0.90288,-1.61887 4.15111,-2.81549 5.09109,-1.87552 0.5644,0.56441 0.40305,2.43268 -0.35885,4.15508 -0.43766,0.98942 -0.69361,1.21779 -1.77942,1.58776 -1.81169,0.61731 -3.46016,0.57496 -3.82039,-0.0981 z m -40.08378,-18.2387 c -3.88866,-0.64478 -7.813879,-2.30596 -10.847922,-4.59093 -1.807916,-1.36156 -4.3533,-4.22847 -5.626896,-6.33766 -1.13702,-1.88302 -2.641658,-5.60187 -2.97265,-7.34718 -1.018698,-5.37157 0.995121,-9.76892 6.043975,-13.19753 2.193245,-1.4894 4.926553,-2.75528 5.53339,-2.56268 1.074773,0.34112 3.536513,5.56179 4.081503,8.65571 l 0.2725,1.547 14.95841,0.0683 c 13.72456,0.0627 14.98174,0.10528 15.24107,0.51647 0.39829,0.63151 -0.17446,4.90231 -1.00974,7.52931 -2.31218,7.27187 -8.6888,13.26058 -16.15375,15.17106 -2.36461,0.60516 -7.42028,0.89625 -9.51989,0.54811 z m 21.36216,-26.55351 c -2.21687,-0.82929 -3.9263,-3.28958 -4.21253,-6.06289 -0.1164,-1.12778 -0.0259,-1.71852 0.41618,-2.71802 0.67046,-1.51568 0.62185,-1.62765 -1.76644,-4.06841 -3.54968,-3.627677 -8.24661,-5.815532 -14.01773,-6.529543 -1.63629,-0.202445 -2.1264,-0.758806 -1.48063,-1.68078 0.45847,-0.654551 1.08969,-0.635228 4.85836,0.148725 5.0707,1.0548 10.06215,4.028939 13.40693,7.988476 0.81603,0.966022 1.55636,1.779752 1.64516,1.808292 0.0888,0.0285 0.66903,0.18238 1.28941,0.34187 4.15301,1.06763 6.15859,8.06043 2.97308,10.36615 -0.88967,0.64396 -2.06571,0.79744 -3.11179,0.40613 z m 2.21215,-2.43795 c 1.06627,-1.62733 -0.18612,-5.20234 -2.15065,-6.13916 -0.88785,-0.42338 -0.93364,-0.41795 -1.57788,0.18728 -1.35153,1.2697 -0.53212,4.68206 1.44586,6.02119 1.13818,0.77056 1.74443,0.75215 2.28267,-0.0693 z"
       id="path6" /><path
       style="fill:#b48b46"
       d="m 78.47594,170.94954 c 0,-1.94028 -0.0147,-1.98438 -0.661458,-1.98438 -0.411575,0 -0.661459,-0.14993 -0.661459,-0.39687 0,-0.31498 0.382176,-0.39688 1.852084,-0.39688 1.469907,0 1.852083,0.0819 1.852083,0.39688 0,0.26458 -0.264583,0.39687 -0.79375,0.39687 h -0.79375 v 1.98438 c 0,1.5875 -0.07937,1.98437 -0.396875,1.98437 -0.3175,0 -0.396875,-0.39687 -0.396875,-1.98437 z m 8.202083,1.90324 c 0,-0.0446 0.391771,-1.08642 0.870601,-2.31511 0.523673,-1.34375 1.02022,-2.23397 1.246066,-2.23397 0.225846,0 0.722393,0.89022 1.246066,2.23397 1.010048,2.5918 0.967922,2.39624 0.516195,2.39624 -0.194923,0 -0.490026,-0.29766 -0.655786,-0.66146 -0.225357,-0.4946 -0.504464,-0.66146 -1.106475,-0.66146 -0.602011,0 -0.881118,0.16686 -1.106475,0.66146 -0.16576,0.3638 -0.460863,0.66146 -0.655786,0.66146 -0.194923,0 -0.354406,-0.0365 -0.354406,-0.0811 z m 2.627237,-2.10168 c -0.01023,-0.1819 -0.110592,-0.5662 -0.223032,-0.854 -0.199802,-0.5114 -0.211375,-0.5103 -0.51057,0.0488 -0.440683,0.82342 -0.379319,1.13597 0.223032,1.13597 0.291042,0 0.520798,-0.14883 0.51057,-0.33073 z m 8.829669,1.78561 c -1.247181,-0.87356 -0.966148,-3.23644 0.473473,-3.9809 0.93422,-0.48311 2.357118,-0.50752 2.357118,-0.0404 0,0.21903 -0.34872,0.34396 -0.96013,0.34396 -1.68995,0 -2.569842,1.86752 -1.421117,3.01625 0.291042,0.29104 0.826823,0.52916 1.190625,0.52916 0.529172,0 0.661462,-0.13229 0.661462,-0.66145 0,-0.48507 -0.14111,-0.66146 -0.52917,-0.66146 -0.291042,0 -0.529167,-0.11906 -0.529167,-0.26459 0,-0.14552 0.416719,-0.26458 0.926047,-0.26458 0.92114,0 0.92604,0.006 0.92604,1.19063 v 1.19062 h -1.264048 c -0.695842,0 -1.518959,-0.17855 -1.831133,-0.3972 z m 10.030191,-1.89655 c 0.0499,-1.49683 0.18737,-2.33049 0.39572,-2.39948 0.22695,-0.0752 0.34171,0.49247 0.39687,1.96302 l 0.0776,2.06875 1.13051,0.0817 c 1.60931,0.11623 1.1078,0.5798 -0.62726,0.5798 h -1.4499 z m 9.78958,0 c 0.0514,-1.54269 0.18474,-2.32962 0.40718,-2.4033 0.24835,-0.0823 0.33073,0.48908 0.33073,2.29375 0,1.9869 -0.0705,2.4033 -0.40718,2.4033 -0.34108,0 -0.39477,-0.37234 -0.33073,-2.29375 z m 7.72864,1.93826 c -0.26544,-0.6917 0.0123,-4.22961 0.34057,-4.33812 0.17591,-0.0581 0.83076,0.61052 1.45521,1.48593 0.62445,0.87541 1.21872,1.59807 1.3206,1.60592 0.10187,0.008 0.22094,-0.64195 0.26458,-1.44399 0.1239,-2.27707 0.59935,-1.72511 0.68496,0.79519 0.0685,2.0168 0.0271,2.25056 -0.39842,2.25056 -0.28581,0 -0.89563,-0.62915 -1.53166,-1.5802 -0.58123,-0.86911 -1.14608,-1.58349 -1.25522,-1.5875 -0.10914,-0.004 -0.19844,0.70708 -0.19844,1.5802 0,1.47293 -0.34833,2.10201 -0.68218,1.23201 z m 11.05678,-1.95961 0.0765,-2.31511 1.38906,-0.08 c 1.11346,-0.0641 1.38906,0.002 1.38906,0.33073 0,0.30276 -0.27814,0.4107 -1.05833,0.4107 -0.9525,0 -1.05834,0.0661 -1.05834,0.66146 0,0.57956 0.11466,0.66146 0.92605,0.66146 0.50932,0 0.92604,0.11906 0.92604,0.26458 0,0.14552 -0.42463,0.26458 -0.94362,0.26458 -0.8733,0 -0.93738,0.0542 -0.85989,0.72761 0.0749,0.65106 0.202,0.73616 1.20819,0.80896 1.71284,0.12393 1.34064,0.5801 -0.47332,0.5801 h -1.5978 z m -55.090893,-8.78003 c -1.86676,-0.56784 -4.496204,-2.88177 -4.496204,-3.95669 0,-0.59284 1.343488,-1.81019 2.248423,-2.03731 1.15546,-0.29 1.52081,-0.0272 2.024918,1.45662 0.584393,1.72013 1.150401,2.40334 1.991047,2.40334 0.822727,0 1.267796,-0.97665 1.027873,-2.25555 -0.137813,-0.73461 -0.721036,-1.53401 -2.379424,-3.26139 -2.692403,-2.80442 -3.162484,-3.65 -2.995462,-5.38823 0.176072,-1.83242 1.300229,-3.29379 3.365091,-4.37451 2.675524,-1.40035 5.471791,-1.14548 6.865006,0.6257 0.608275,0.7733 0.724842,2.18188 0.256197,3.09586 -0.490534,0.95666 -1.892106,2.29771 -2.401404,2.29771 -0.404177,0 -0.477862,-0.23298 -0.481165,-1.52136 -0.0041,-1.61217 -0.365095,-2.60968 -1.113462,-3.07704 -0.669144,-0.41788 -1.245119,0.48434 -1.255473,1.96659 -0.0092,1.31984 0.963942,2.96164 2.258118,3.80962 0.372383,0.24399 1.026783,0.99508 1.454222,1.66908 2.635763,4.15617 -1.69511,9.96908 -6.368301,8.54756 z m 13.684238,-0.39365 c -1.585265,-0.42631 -3.072975,-1.5933 -3.758209,-2.94801 -1.899807,-3.75592 1.577042,-10.98601 6.479851,-13.4748 2.433443,-1.23528 5.202533,-1.77394 6.085413,-1.18376 0.59768,0.39952 -0.70905,1.44154 -2.52599,2.01428 -1.738446,0.548 -3.299998,1.80562 -4.245718,3.41937 -2.475015,4.2233 -1.51583,10.16795 1.640624,10.16795 2.142254,0 4.629644,-3.89641 4.257694,-6.66952 -0.0766,-0.57071 -0.45772,-1.66722 -0.84704,-2.4367 -0.93679,-1.85155 -0.81319,-2.42347 0.75714,-3.50338 1.43619,-0.98767 2.26603,-1.10873 2.88679,-0.42113 1.21298,1.34359 1.27378,5.86526 0.11712,8.71057 -2.11995,5.21497 -6.17769,7.58098 -10.847675,6.32513 z m 14.975265,0.0873 c -2.5611,-0.74918 -2.768,-3.53265 -0.77661,-10.448 1.209,-4.1984 2.39212,-6.83508 3.24045,-7.2216 0.86388,-0.39361 3.08506,-0.38096 3.48587,0.0198 0.46689,0.46689 0.41027,0.77939 -0.61793,3.4107 -1.19101,3.04793 -2.64509,8.9367 -2.29351,9.28828 0.1656,0.1656 0.50939,-0.009 0.97016,-0.49302 0.71614,-0.75209 4.01488,-5.66047 5.64226,-8.39542 0.71817,-1.20695 1.02938,-1.49191 1.78394,-1.63347 1.73154,-0.32483 1.70779,-0.40183 1.53209,4.96753 -0.13166,4.02357 -0.0796,5.23593 0.30835,7.17968 0.56346,2.82313 0.40933,3.1075 -1.78269,3.28928 -1.35085,0.11202 -1.45414,0.0743 -2.23599,-0.81615 -0.78914,-0.89878 -1.40168,-2.776 -1.40168,-4.29564 0,-0.88784 -0.32095,-0.813 -0.90691,0.21146 -2.19843,3.8436 -4.67312,5.60191 -6.9478,4.93652 z m 14.88522,-0.41822 c -0.26234,-0.68365 0.24794,-2.63274 2.34314,-8.95007 1.0618,-3.20146 1.88648,-5.90028 1.83262,-5.99737 -0.0539,-0.0971 -0.52799,-0.0578 -1.05361,0.0873 -1.23023,0.33968 -1.66701,-0.0159 -1.16707,-0.95 0.50858,-0.95028 2.1891,-1.52162 4.92081,-1.67296 3.08587,-0.17097 4.97396,0.33551 6.43417,1.72595 1.42549,1.35737 1.77939,2.73185 1.24273,4.82662 -0.72358,2.82443 -2.47812,4.93206 -4.84205,5.81653 -1.67884,0.62813 -2.53725,0.66963 -2.97368,0.14377 -0.34123,-0.41116 0.0232,-0.85339 1.82877,-2.2193 1.43515,-1.08567 2.10915,-3.18289 1.61395,-5.02194 -0.33112,-1.22969 -1.25216,-2.19604 -1.58295,-1.66082 -0.11844,0.19165 -0.77684,2.21098 -1.46311,4.4874 -0.68626,2.27642 -1.48443,4.91285 -1.77371,5.85874 -0.57507,1.88036 -1.47361,3.04084 -2.79088,3.60446 -1.1771,0.50365 -2.35964,0.46759 -2.56913,-0.0784 z m -57.57601,-5.17976 c -1.302317,-0.65672 -1.717293,-1.32072 -2.105842,-3.36953 -0.285065,-1.50314 -0.06453,-2.24528 0.743427,-2.50171 0.575663,-0.18271 2.72041,0.42788 3.655794,1.04076 1.415248,0.92731 2.562015,4.86976 1.531523,5.26519 -0.892348,0.34243 -2.688637,0.13828 -3.824902,-0.43471 z m 77.53241,0.065 c -0.34199,-0.63902 0.0348,-2.27602 0.86757,-3.76918 0.90288,-1.61887 4.15111,-2.81549 5.09109,-1.87552 0.5644,0.56441 0.40305,2.43268 -0.35885,4.15508 -0.43766,0.98942 -0.69361,1.21779 -1.77942,1.58776 -1.81169,0.61731 -3.46016,0.57496 -3.82039,-0.0981 z m -40.08378,-18.2387 c -3.88866,-0.64478 -7.813879,-2.30596 -10.847922,-4.59093 -1.807916,-1.36156 -4.3533,-4.22847 -5.626896,-6.33766 -1.13702,-1.88302 -2.641658,-5.60187 -2.97265,-7.34718 -1.018698,-5.37157 0.995121,-9.76892 6.043975,-13.19753 2.193245,-1.4894 4.926553,-2.75528 5.53339,-2.56268 1.074773,0.34112 3.536513,5.56179 4.081503,8.65571 l 0.2725,1.547 14.95841,0.0683 c 13.72456,0.0627 14.98174,0.10528 15.24107,0.51647 0.39829,0.63151 -0.17446,4.90231 -1.00974,7.52931 -2.31218,7.27187 -8.6888,13.26058 -16.15375,15.17106 -2.36461,0.60516 -7.42028,0.89625 -9.51989,0.54811 z m 5.29636,-4.48458 c 6.10266,-1.25957 10.69766,-4.5129 12.29463,-8.70479 1.51436,-3.97506 -0.53166,-6.5209 -6.29398,-7.83151 -2.4354,-0.55392 -14.56471,-0.63313 -14.71101,-0.0961 -0.72604,2.66515 -1.14524,3.60121 -2.290147,5.11384 -0.719024,0.94996 -1.307316,1.76475 -1.307316,1.81065 0,0.0459 0.474225,0.14705 1.053835,0.22479 0.579609,0.0777 1.565698,0.38914 2.191318,0.69199 1.35472,0.65581 4.06553,3.00976 4.29361,3.72838 0.3558,1.12103 -1.31825,3.01284 -4.03303,4.55763 -0.76399,0.43473 -1.38907,0.83859 -1.38907,0.89746 0,0.0589 1.75618,0.10547 3.90261,0.10356 2.76284,-0.002 4.59942,-0.1473 6.28855,-0.49593 z m -10.32345,-2.65833 c 0.58209,-0.27515 1.41202,-0.79424 1.8443,-1.15353 0.69868,-0.5807 0.7442,-0.70357 0.40988,-1.10641 -0.78126,-0.94135 -3.010444,-1.98569 -4.238553,-1.98569 -0.82952,0 -1.595796,0.2324 -2.526542,0.76627 -1.896383,1.08774 -2.173397,1.47728 -1.54487,2.17241 0.798829,0.88348 2.789859,1.79365 3.93912,1.80072 0.582083,0.004 1.534583,-0.21862 2.116665,-0.49377 z M 93.006756,119.1022 c 1.14885,-0.59409 3.071496,-2.88785 4.398415,-5.24741 0.976512,-1.73645 1.167323,-2.28469 1.023335,-2.94026 -0.20833,-0.94853 -1.668505,-4.07804 -1.997652,-4.28146 -0.342366,-0.21159 -3.108287,1.34175 -4.669449,2.62237 -2.537606,2.08159 -4.025048,4.77693 -4.025048,7.29365 0,1.14382 0.09666,1.36193 0.859896,1.94038 0.472942,0.35843 1.038489,0.72035 1.25677,0.80426 0.759937,0.29214 2.412503,0.19177 3.153733,-0.19153 z m 33.421974,-7.89496 c -2.21687,-0.82929 -3.9263,-3.28958 -4.21253,-6.06289 -0.1164,-1.12778 -0.0259,-1.71852 0.41618,-2.71802 0.67046,-1.51568 0.62185,-1.62764 -1.76644,-4.06841 -3.54968,-3.627677 -8.24661,-5.815532 -14.01773,-6.529543 -1.63629,-0.202445 -2.1264,-0.758806 -1.48063,-1.68078 0.45847,-0.654551 1.08969,-0.635228 4.85836,0.148725 5.0707,1.0548 10.06215,4.028939 13.40693,7.988476 0.81603,0.966022 1.55636,1.779752 1.64516,1.808292 0.0888,0.0285 0.66903,0.18238 1.28941,0.34187 4.15301,1.06763 6.15859,8.06043 2.97308,10.36615 -0.88967,0.64396 -2.06571,0.79744 -3.11179,0.40613 z m 2.21215,-2.43795 c 1.06627,-1.62733 -0.18612,-5.20234 -2.15065,-6.13916 -0.88785,-0.42338 -0.93364,-0.41795 -1.57788,0.18728 -1.35153,1.2697 -0.53212,4.68206 1.44586,6.02119 1.13818,0.77056 1.74443,0.75215 2.28267,-0.0693 z"
       id="path5" /><path
       style="fill:#bb8d39"
       d="m 78.47594,170.94954 c 0.880634,-2.03927 -3.213312,-2.81747 0.529167,-2.77813 2.756169,-0.14929 1.365343,0.73487 0.264583,1.03327 0.204593,1.29234 -0.346376,6.71626 -0.79375,1.74486 z m 8.202083,1.90324 c 0.530869,-1.98336 2.317995,-6.91392 3.362733,-2.31511 1.004463,1.42156 0.887896,3.62563 -0.551583,1.21858 -1.623,-0.98683 -1.59616,1.37369 -2.81115,1.09653 z m 2.627237,-2.10168 c -0.164508,-3.13524 -1.929054,1.53216 0,4e-5 z m 8.829669,1.78561 c -2.817247,-1.79218 1.780265,-5.96545 2.579801,-3.76718 -3.713418,-1.05134 -2.689059,5.43731 -0.27837,2.9738 -2.513304,-3.10366 3.21135,0.83705 -0.16435,1.19062 -0.72867,0.0103 -1.478021,-0.0496 -2.137081,-0.39724 z m 10.030191,-1.89655 c -0.071,-3.48436 1.08333,-1.95274 0.8285,0.52096 -0.81277,1.92268 4.32397,1.16317 0.54494,1.77283 -2.11227,0.56968 -1.28554,-0.94915 -1.37344,-2.29379 z m 9.78958,0 c -0.21639,-2.575 1.06309,-2.90362 0.73791,-0.10955 0.34273,2.07102 -0.96483,4.19648 -0.73791,0.10955 z m 7.72864,1.93826 c -0.62207,-2.47829 0.41448,-6.1161 2.25124,-2.23306 1.59356,3.36992 1.00477,-4.69831 1.76575,-0.51318 0.66268,2.04969 -0.44098,4.55471 -1.88115,1.52153 -2.68941,-5.41328 -0.41506,2.90032 -2.13584,1.22471 z m 11.05678,-1.95961 c -0.49745,-2.12215 0.7519,-2.98769 2.79416,-2.26375 -0.68937,0.59458 -3.8936,1.67419 -0.47615,2.01071 -0.21414,-0.0607 -3.12822,1.67302 -0.32329,1.98801 3.14166,0.25726 -3.68607,1.75893 -2.02372,-0.85626 0.01,-0.29291 0.0193,-0.58581 0.029,-0.87871 z m -55.090893,-8.78003 c -3.245718,-0.54035 -6.742331,-5.548 -1.514818,-6.09741 1.463495,0.72147 2.783186,6.41006 4.367183,2.59979 -0.24547,-4.20702 -7.122675,-6.0775 -5.121489,-10.84618 1.470357,-3.94877 9.212191,-6.03104 10.452335,-0.94904 0.507842,2.62525 -4.306444,5.91012 -3.228784,1.28183 -2.601236,-5.41051 -3.143923,3.85631 0.666117,4.46766 3.975107,3.83353 -0.382215,11.1505 -5.620544,9.54335 z m 13.684238,-0.39365 c -4.36573,-0.94808 -5.211312,-6.22463 -3.292539,-9.67371 1.926403,-4.59518 6.540161,-8.37251 11.684434,-8.10211 0.66178,2.54934 -6.486499,2.65631 -6.780671,6.41307 -2.536254,3.15308 -0.365219,12.5797 4.451401,7.97869 3.59837,-2.99679 0.49583,-7.22769 0.86862,-10.48789 4.31892,-4.63356 5.78174,3.23326 4.29324,6.41073 -1.26219,4.86501 -5.93386,9.14909 -11.224485,7.46122 z m 14.975265,0.0873 c -4.26252,-2.44447 -1.03006,-8.24773 -0.32505,-11.94785 -0.20391,-3.31853 4.96981,-8.93988 6.4273,-4.40365 -1.03389,3.51278 -3.53956,8.30274 -2.68959,11.39778 3.11635,-2.94902 4.64743,-7.27914 7.52589,-10.37379 4.25794,-0.70304 1.09242,6.50606 1.98749,9.19208 1.33185,3.03251 0.49801,8.50729 -3.66965,5.28304 -1.71786,-1.5889 -0.90832,-7.57648 -3.14502,-2.74124 -1.34606,1.9396 -3.45702,4.30179 -6.11137,3.59363 z m 14.88522,-0.41822 c 0.46836,-5.15536 3.04475,-9.90449 4.17576,-14.94744 -4.87112,1.10822 -0.3387,-3.43335 2.20028,-2.50237 3.93498,-0.88592 9.73686,1.75307 8.17675,6.51928 -0.17395,3.35106 -6.11085,8.27103 -7.70639,5.20868 3.38227,-0.70175 4.8693,-8.47308 1.56836,-7.68855 -1.70703,4.1122 -1.98479,8.90059 -4.53533,12.59635 -0.88575,0.86008 -2.85121,1.86608 -3.87943,0.81405 z m -57.57601,-5.17976 c -3.989058,-1.90588 -1.958748,-8.53229 2.293379,-4.83048 3.03034,2.82853 2.53091,7.26215 -2.293379,4.83048 z m 77.53241,0.065 c -1.88455,-4.28913 7.67852,-9.08802 6.05668,-2.78612 -0.2078,2.83318 -3.90051,4.11047 -6.05668,2.78612 z m -40.08378,-18.2387 c -8.723146,-1.24855 -16.285779,-7.75244 -18.840357,-16.17761 -2.29258,-5.41442 0.07539,-11.88691 4.972426,-14.97142 2.664906,-2.13307 7.237679,-4.599 8.237248,0.40861 1.865653,1.72083 0.718803,6.5145 3.072673,6.91152 9.55937,0.11857 19.13226,-0.10139 28.68058,0.33505 1.69128,2.76263 -0.39463,7.35976 -1.50071,10.436 -3.85488,8.27031 -12.83328,13.70421 -21.95978,13.20686 -0.88896,0.002 -1.78127,-0.0148 -2.66208,-0.14901 z m 8.68862,-2.7847 c 2.08765,-0.26385 5.92748,-2.71888 1.72808,-0.84168 -3.52261,0.94239 -7.57784,1.60172 -11.07816,0.61843 -1.42971,-0.37488 -5.461741,-0.96726 -1.62682,0.0456 3.5432,1.1678 7.36689,0.7657 10.9769,0.17767 z m -2.18162,-1.9408 c 5.31551,-1.3794 11.30875,-5.08742 11.56525,-11.12622 -0.47933,-3.88363 -4.9437,-4.70359 -8.12358,-5.47851 3.63842,0.11821 7.29261,0.0817 10.91973,0.28165 -0.0436,0.7977 4.9442,-1.58042 2.81962,1.88798 -0.58485,3.64419 -2.79001,7.71923 -5.01716,9.77124 -0.38222,1.70134 -6.13769,4.52883 -4.74126,4.4662 5.89259,-3.35698 9.99239,-9.70949 10.39876,-16.49298 -9.26003,-0.2804 -18.53044,-0.12232 -27.7952,-0.16379 0.33122,2.92738 -2.970163,5.53474 -3.112561,7.53837 4.410601,0.21452 10.192461,5.64791 4.130531,8.38584 -1.7909,1.10447 -4.426117,1.96583 -0.63862,1.6942 3.19809,-0.0967 6.46429,-0.0129 9.59449,-0.76398 z m 6.51821,-0.74244 c -0.86191,-0.29155 -0.71158,0.49125 0,0 z m -18.954533,-1.24247 c 2.007043,-0.59535 5.376753,-2.76347 1.478923,-3.87474 -2.380643,-2.54676 -10.352702,1.29205 -5.084525,3.44099 0.89884,0.19299 2.463531,1.07001 3.605602,0.43375 z m 24.450153,-3.88935 c -0.0699,-0.9703 -0.79414,0.89136 0,0 z m -30.759626,-3.19488 c 3.675797,-2.16013 7.150958,-6.01695 6.133662,-10.60625 -0.735479,-2.40178 -1.074689,-8.34874 -4.610496,-6.11529 -2.52377,1.88385 -5.443605,3.97148 -6.400283,6.92635 -0.669394,3.20568 0.08308,10.38655 3.682996,10.47964 l 0.527117,-0.29324 0.667001,-0.39122 z m -2.710167,0.0728 c -1.00843,-2.11185 -1.886677,-5.01141 -1.55526,-5.55233 3.802265,3.01586 7.298785,-1.59723 8.901042,-4.75235 1.214447,-3.41627 1.397054,0.31317 1.19644,2.12979 -0.328431,4.18722 -4.12091,6.57013 -7.191369,8.56417 -0.392032,0.0848 -1.363903,0.27614 -1.350853,-0.38928 z m 0.204125,-3.90574 c -0.96526,0.47316 -0.825902,1.88693 0,0 z m 1.311717,0.25339 c -0.861893,-0.29155 -0.711605,0.49125 0,0 z m 5.098741,-2.75057 c -0.712417,-1.06627 -0.623513,1.03015 0,0 z m 0.445324,-1.6371 c -0.475459,-0.18895 0.177999,1.12948 0,0 z m 27.071346,8.25169 c -0.71238,-1.06627 -0.62355,1.03011 0,0 z m 0.0397,-6.21771 c -0.77554,-1.33855 -0.69131,1.30588 0,0 z m 2.14019,-6.82563 c -3.59339,-1.48145 -5.34232,-6.29353 -3.45365,-9.71279 -1.49179,-3.909941 -5.85949,-6.420038 -9.63007,-8.068427 -2.06168,-1.763441 -9.07366,-0.347605 -7.55486,-3.641569 7.35395,0.03449 14.45247,3.980442 18.93801,9.756046 4.585,0.92477 8.81184,7.30543 4.81236,11.26061 -0.88322,0.64694 -2.09185,0.79494 -3.11179,0.40613 z m 2.21215,-2.43795 c 2.40991,-2.97768 -4.06924,-9.808994 -4.38652,-3.84186 -0.0979,1.73744 2.5175,5.97011 4.38652,3.84186 z"
       id="path4" /><path
       id="path2"
       style="fill:#5b4a48"
       d="m 106.52166,89.900972 c -1.12542,0.08134 -1.19062,0.129175 -1.19062,0.874366 v 0.788582 l 2.38125,0.338481 c 3.08021,0.437799 4.82546,0.953574 7.12825,2.107365 3.05479,1.530578 5.72772,3.626126 7.58661,5.947957 l 0.78083,0.975137 -0.55448,1.64486 c -0.64277,1.90801 -0.54765,3.09521 0.41237,5.13664 0.7757,1.64946 1.06826,2.00738 2.3487,2.87631 2.93306,1.99043 6.07188,-0.31753 5.62394,-4.13515 -0.34881,-2.97274 -2.77815,-6.01721 -4.80125,-6.01721 -0.74029,0 -1.06409,-0.22164 -2.02985,-1.389059 -2.27424,-2.749119 -4.54615,-4.657042 -7.43418,-6.242513 -3.23724,-1.777181 -7.83528,-3.080392 -10.25157,-2.905766 z m 19.14147,12.381678 c 0.5286,-0.005 1.15223,0.38195 1.90479,1.16737 1.35789,1.4172 1.9348,3.30466 1.4547,4.7594 -0.16572,0.50212 -0.48379,0.98306 -0.70694,1.06866 -2.41351,0.92615 -5.28382,-3.90015 -3.73,-6.27196 0.31261,-0.47719 0.66632,-0.71922 1.07745,-0.72347 z m -28.659232,1.48931 c -0.835365,0.0539 -4.290448,1.78074 -5.889563,2.97656 -5.78822,4.3284 -7.118558,9.58785 -4.195093,16.58452 3.35174,8.02166 10.099559,13.21322 18.702218,14.38982 4.68333,0.64055 10.30352,-0.44452 14.45493,-2.79104 6.25308,-3.53445 10.14327,-9.19222 11.4422,-16.64085 0.48623,-2.78792 0.50401,-3.62339 0.0858,-4.04161 -0.23942,-0.2394 -3.97926,-0.3173 -15.20837,-0.3173 h -14.89108 l -0.11318,-0.59531 c -0.49553,-2.61399 -0.80559,-3.6495 -1.666044,-5.55677 -1.038873,-2.30276 -1.986535,-3.76364 -2.591057,-3.99562 -0.03108,-0.0119 -0.07505,-0.016 -0.130741,-0.0124 z m -0.748275,2.48719 c 0.447846,0 1.870842,2.79432 2.492871,4.89479 0.727049,2.4551 0.645018,5.46997 -0.198437,7.28793 -1.115787,2.40492 -3.138614,4.34563 -6.415112,6.15466 -0.709552,0.39176 -1.4353,0.71262 -1.612305,0.71262 -0.514245,0 -2.204329,-3.9097 -2.673739,-6.18516 -0.783073,-3.79591 0.186568,-6.87197 2.967261,-9.41337 1.485031,-1.35723 4.785701,-3.45147 5.439461,-3.45147 z m 5.291667,9.78958 h 13.99656 13.99656 v 0.88367 c 0,1.31604 -0.90682,4.61434 -1.82572,6.64094 -2.61119,5.75885 -8.09083,10.21696 -14.36605,11.68817 -2.00287,0.46957 -6.07013,0.65778 -7.9096,0.36587 -1.96816,-0.31233 -5.860188,-1.64666 -5.996531,-2.05569 -0.05967,-0.17901 0.08471,-0.32504 0.320911,-0.32504 1.31636,0 5.69991,-3.48631 5.69991,-4.53306 0,-0.76591 -2.61199,-3.14644 -4.35891,-3.97288 -0.87683,-0.41481 -2.020511,-0.75436 -2.541961,-0.75448 -0.52145,-1.1e-4 -1.021623,-0.0734 -1.111043,-0.16278 -0.08941,-0.0894 0.337398,-0.69118 0.948263,-1.33739 1.301153,-1.37644 2.419691,-3.41284 2.845301,-5.18056 z m -3.327962,10.07897 c 1.41373,0.0231 2.811302,0.64885 3.952732,1.85053 l 0.77773,0.81908 -1.05833,0.92345 c -0.58209,0.50804 -1.45956,1.09249 -1.950273,1.29863 -1.869414,0.78532 -4.095362,0.27106 -5.968112,-1.37924 -0.934714,-0.82369 -0.80232,-1.13999 1.031462,-2.4598 1.005631,-0.72377 2.115223,-1.07064 3.214791,-1.05265 z m -12.500012,17.44442 c -0.711525,0.007 -1.478896,0.13432 -2.270663,0.4041 -2.354532,0.80227 -4.422952,3.25391 -4.437972,5.26015 -0.0097,1.29535 1.016907,2.99286 2.690275,4.44831 2.704597,2.35238 3.686389,4.93718 2.236039,5.88749 -1.10601,0.72468 -1.838048,0.0522 -2.663403,-2.44688 -0.35186,-1.06541 -0.583598,-1.38906 -0.993221,-1.38906 -0.819761,0 -2.327624,0.80334 -2.767273,1.47433 -0.348049,0.5312 -0.34883,0.6897 -0.0041,1.34979 0.363138,0.69542 1.230203,1.59465 2.370915,2.45928 0.262782,0.19918 1.036688,0.51514 1.719791,0.70228 2.266539,0.62092 4.140136,0.0449 5.670972,-1.74356 1.491941,-1.743 1.950653,-4.22849 1.09089,-5.9092 -0.238235,-0.46572 -1.243396,-1.7033 -2.233973,-2.75022 -2.039283,-2.15528 -2.389334,-3.09816 -1.733227,-4.66845 0.859152,-2.05624 2.367798,-0.60949 2.370398,2.27273 0.0011,1.24019 0.08246,1.52135 0.440283,1.52135 0.509448,0 1.300008,-0.80027 2.090312,-2.11666 1.544699,-2.57296 -0.492735,-4.78765 -3.576009,-4.75578 z m 29.542904,0.005 c -0.21958,0.002 -0.49294,0.0174 -0.83871,0.0424 -1.0982,0.0794 -1.72135,0.26803 -2.06706,0.62529 -0.791,0.81744 -2.28295,4.76362 -3.14968,8.33127 -1.15353,4.74816 -1.24261,5.6143 -0.7183,6.98717 0.53536,1.40182 0.93674,1.76314 2.21433,1.99368 1.92179,0.3468 4.16607,-1.24458 6.06217,-4.29897 0.51944,-0.83675 1.03551,-1.52135 1.1467,-1.52135 0.11118,0 0.28697,0.62507 0.39067,1.38906 0.49679,3.65966 2.01261,5.03767 4.56303,4.14859 0.44661,-0.15569 0.86744,-0.42772 0.93534,-0.60462 0.0679,-0.1769 -0.0512,-1.21076 -0.26458,-2.29701 -0.28831,-1.46752 -0.35844,-3.2491 -0.27234,-6.93447 0.12722,-5.44268 0.0672,-5.68045 -1.35237,-5.36866 -0.97587,0.21434 -1.53416,0.84436 -2.9285,3.30316 -1.29003,2.27484 -4.27581,6.62259 -4.90875,7.14788 -0.33392,0.2771 -0.50207,0.2865 -0.74672,0.0419 -0.24465,-0.24465 -0.14388,-0.98427 0.447,-3.283 0.69997,-2.72312 1.25965,-4.49294 2.38694,-7.54321 0.32155,-0.87006 0.35178,-1.26482 0.12764,-1.68362 -0.19314,-0.36092 -0.36808,-0.48041 -1.02681,-0.47542 z m -12.35429,0.0889 c -0.36662,0.01 -0.78903,0.0619 -1.24023,0.15555 -5.693597,1.18198 -10.468006,6.70199 -10.486186,12.1238 -0.0095,2.82248 1.156343,4.36569 4.09019,5.41569 3.476576,1.24425 7.883486,-0.69711 10.076386,-4.439 0.74563,-1.27234 1.70274,-4.78119 1.70274,-6.242 0,-2.58847 -0.93485,-4.73304 -2.06344,-4.73304 -0.67981,0 -2.59919,1.30294 -2.98741,2.0283 -0.28336,0.52946 -0.22637,0.82235 0.41651,2.13527 0.98505,2.01173 1.1209,3.42129 0.51986,5.40639 -0.67599,2.23264 -2.31007,3.92379 -3.791497,3.92379 -1.495111,0 -1.833921,-0.19423 -2.485637,-1.42214 -0.868037,-1.63548 -0.833206,-5.23451 0.07286,-7.52925 0.884087,-2.23907 2.781827,-4.07193 4.833814,-4.66845 0.80442,-0.23385 1.8004,-0.7382 2.21331,-1.12087 l 0.75085,-0.69608 -0.71778,-0.23926 c -0.22702,-0.0757 -0.53772,-0.10843 -0.90434,-0.0987 z m 29.82557,0.0537 c -3.16209,0.0249 -4.59968,0.42927 -5.41621,1.52291 -0.70965,0.95034 -0.32815,1.3107 0.99943,0.94413 0.55497,-0.15335 1.06778,-0.21948 1.13998,-0.14728 0.0722,0.0722 -0.77405,2.86832 -1.88051,6.21357 -2.17885,6.58736 -2.58592,8.21824 -2.2164,8.87853 0.32258,0.57643 1.14197,0.5351 2.50889,-0.12661 1.90392,-0.92168 2.036,-1.17465 3.7884,-7.25278 0.4615,-1.60073 1.13899,-3.84067 1.50533,-4.97748 0.65658,-2.03748 0.67323,-2.06 1.19476,-1.58802 2.08524,1.88711 1.39159,5.95751 -1.25832,7.38457 -1.6267,0.87604 -1.43069,2.14301 0.27802,1.7973 2.76869,-0.56015 4.96664,-2.42169 5.94434,-5.03483 1.18567,-3.16897 0.43419,-5.47594 -2.22725,-6.83628 -1.46155,-0.74702 -1.74866,-0.79823 -4.36046,-0.77773 z m 17.43098,6.46059 c -1.87494,0 -3.62653,0.97776 -4.38785,2.44998 -0.53762,1.03962 -0.85587,2.96891 -0.57309,3.47421 0.48558,0.86768 3.74119,0.35122 5.00693,-0.79427 0.59178,-0.53555 1.40457,-3.58152 1.18701,-4.44831 -0.14831,-0.59096 -0.31266,-0.68161 -1.233,-0.68161 z m -83.272439,0.006 c -1.370674,-0.007 -1.675381,0.52536 -1.336869,2.33733 0.389746,2.08621 1.011754,3.0249 2.337325,3.52692 1.402249,0.53106 3.202623,0.6111 3.651456,0.16226 0.515428,-0.51542 0.367907,-1.55883 -0.470255,-3.33055 -0.664643,-1.40493 -0.962636,-1.74363 -1.917712,-2.17712 -0.622034,-0.28233 -1.640792,-0.51584 -2.263945,-0.51884 z m 33.325619,18.02526 c -0.633131,0.01 -1.578524,0.33021 -2.068095,0.79013 -0.917522,0.86197 -0.879187,2.635 0.07338,3.38429 0.686751,0.5402 1.768821,0.70262 2.588475,0.38809 0.28246,-0.10839 0.41858,-0.49545 0.41858,-1.19062 0,-1.00083 -0.0263,-1.02991 -0.92604,-1.02991 -1.021441,0 -1.275265,0.44257 -0.330734,0.57671 0.390744,0.0555 0.595314,0.26658 0.595314,0.61391 0,0.71346 -1.312395,0.87258 -2.007631,0.2434 -1.204127,-1.08972 -0.174452,-3.28611 1.540471,-3.28611 0.58891,0 0.83304,-0.10087 0.71365,-0.29404 -0.0866,-0.14017 -0.30959,-0.20017 -0.59737,-0.19585 z m 8.41705,0.22531 c -0.15369,0.0143 -0.26096,0.93638 -0.26096,2.24896 v 2.24896 h 1.32291 c 0.72761,0 1.32292,-0.11907 1.32292,-0.26459 0,-0.14552 -0.47625,-0.26458 -1.05833,-0.26458 h -1.05834 v -1.98437 c 0,-1.14653 -0.11171,-1.98438 -0.26458,-1.98438 -10e-4,0 -0.002,-1.1e-4 -0.004,0 z m 9.66091,0 c -0.31897,0 -0.39687,0.40634 -0.39687,2.07223 0,1.13992 0.0797,2.15195 0.17673,2.24895 0.47375,0.47375 0.61702,-0.008 0.61702,-2.07222 0,-1.82268 -0.0752,-2.24896 -0.39688,-2.24896 z m 11.09235,0 c -0.28379,0 -0.37672,0.39099 -0.37672,1.5875 0,0.87313 -0.0893,1.58051 -0.19844,1.57251 -0.10914,-0.008 -0.65366,-0.72247 -1.21026,-1.5875 -1.43648,-2.23249 -1.7663,-2.10601 -1.7663,0.67645 0,1.32292 0.10894,2.24896 0.26458,2.24896 0.14925,0 0.26458,-0.74965 0.26458,-1.71979 0,-0.94589 0.0893,-1.71763 0.19844,-1.71463 0.10914,0.003 0.55575,0.60654 0.99219,1.34152 0.83925,1.41331 1.62786,2.27268 1.86655,2.03399 0.0789,-0.0789 0.18838,-1.10999 0.24288,-2.29134 0.0797,-1.7276 0.0253,-2.14767 -0.2775,-2.14767 z m 7.29619,0 v 2.24896 2.24844 h 1.43971 c 0.79177,0 1.5131,-0.11906 1.603,-0.26458 0.0999,-0.16161 -0.30604,-0.26459 -1.04283,-0.26459 -1.16384,0 -1.20613,-0.0279 -1.20613,-0.79375 0,-0.73075 0.0735,-0.79375 0.92605,-0.79375 0.50932,0 0.92604,-0.11906 0.92604,-0.26458 0,-0.14552 -0.42462,-0.26458 -0.94361,-0.26458 -0.87329,0 -0.9374,-0.0542 -0.8599,-0.72761 0.072,-0.62569 0.23196,-0.74997 1.14205,-0.88832 0.41603,-0.0632 0.64837,-0.10249 0.66972,-0.12919 l 5.2e-4,-5.1e-4 c 1.3e-4,-2.4e-4 9.5e-4,-0.001 10e-4,-0.002 5e-5,-2.4e-4 4.9e-4,-0.001 5.1e-4,-0.002 v -5.2e-4 c -5e-5,-2.3e-4 -4.3e-4,-0.001 -5.1e-4,-0.002 l -5.2e-4,-5.2e-4 -5.2e-4,-5.1e-4 c -2e-4,-2.3e-4 -8e-4,-0.001 -0.001,-0.002 -0.0361,-0.0294 -0.39702,-0.0428 -1.13223,-0.061 z m -47.894748,0.047 c -0.330107,0.0162 -0.658874,0.68197 -1.126546,2.00349 -0.39911,1.12778 -0.724353,2.15404 -0.722953,2.281 0.0014,0.127 0.181177,0.083 0.399459,-0.0982 0.218281,-0.18116 0.396875,-0.49354 0.396875,-0.69401 0,-0.24854 0.334904,-0.36432 1.053165,-0.36432 0.902852,0 1.07726,0.0945 1.219564,0.66146 0.167325,0.66668 0.637687,0.92622 0.637687,0.35192 0,-0.17013 -0.324682,-1.18216 -0.721403,-2.24896 -0.47428,-1.27536 -0.80574,-1.90858 -1.135848,-1.89239 z m -9.784415,0.0155 c -0.881644,0 -1.364225,0.0334 -1.383895,0.0909 -0.0056,0.0223 0.05719,0.0491 0.19327,0.078 0.790245,0.16823 0.794334,0.17781 0.871264,2.21744 0.0425,1.12677 0.186082,2.04897 0.319361,2.04897 0.133278,0 0.277377,-0.9222 0.319877,-2.04897 0.07694,-2.03963 0.0805,-2.04921 0.870748,-2.21744 0.13608,-0.029 0.199433,-0.0552 0.193786,-0.0775 -0.01967,-0.0575 -0.502765,-0.0915 -1.384411,-0.0915 z m 9.746175,1.01751 c 0.169227,-0.009 0.350991,0.25055 0.532784,0.77204 0.258361,0.74115 0.234242,0.79375 -0.37052,0.79375 -0.652297,0 -0.800032,-0.35448 -0.487309,-1.16943 0.09937,-0.25896 0.209258,-0.39029 0.325045,-0.39636 z" /><path
       style="fill:#614936"
       d="m 103.56175,135.97609 c 0.19099,-0.0764 0.4192,-0.067 0.50712,0.0209 0.0879,0.0879 -0.0684,0.15045 -0.34727,0.13896 -0.30822,-0.0127 -0.37092,-0.0754 -0.15985,-0.15985 z m 0.97565,-0.2027 c -1.01865,-0.17953 -2.38787,-0.53365 -3.04271,-0.78693 -0.65484,-0.25328 -1.48828,-0.52802 -1.852083,-0.61054 -0.363802,-0.0825 -0.743945,-0.27713 -0.844761,-0.43246 -0.25144,-0.38741 0.272342,-0.96163 0.877158,-0.96163 0.273223,0 0.496766,-0.11907 0.496766,-0.26459 0,-0.14552 0.18691,-0.26458 0.41535,-0.26458 0.60764,0 2.50714,-1.37615 3.65835,-2.65041 l 1.00073,-1.10768 -0.75128,-0.81409 c -1.48125,-1.60511 -2.03639,-2.04971 -3.38031,-2.70723 -0.75002,-0.36696 -1.894071,-0.77116 -2.542323,-0.89824 l -1.178639,-0.23104 1.058334,-0.0288 c 0.664034,-0.0181 1.652288,0.25221 2.652568,0.72543 1.74692,0.82644 4.35889,3.2073 4.35889,3.97321 0,1.04675 -4.38369,4.53258 -5.70005,4.53258 -1.907642,0 2.9449,2.01197 5.55547,2.30342 1.37218,0.15319 2.65698,0.61132 1.59979,0.57045 -0.29104,-0.0113 -1.36261,-0.16735 -2.38125,-0.34689 z m 5.02708,0.0935 c 3.63964,-0.51823 5.14365,-0.89132 7.27604,-1.80491 6.22598,-2.6674 10.50818,-7.67613 12.19226,-14.2608 0.27926,-1.09189 0.50774,-2.38293 0.50774,-2.86898 v -0.88372 H 115.544 101.54747 l -0.3026,1.25678 c -0.16643,0.69122 -0.62478,1.87095 -1.01857,2.62161 -0.752057,1.43361 -2.51227,3.52995 -2.963961,3.52995 -0.145738,0 0.183415,-0.46204 0.73145,-1.02675 0.548035,-0.56472 1.16869,-1.36839 1.379234,-1.78594 0.210543,-0.41755 0.578962,-1.05684 0.818707,-1.42065 0.39353,-0.59715 0.82277,-2.14061 0.88298,-3.17499 0.0202,-0.34664 1.81294,-0.40555 14.16125,-0.46537 11.13519,-0.0539 14.18306,0.002 14.3496,0.26458 0.29392,0.46298 0.26023,2.2433 -0.0664,3.50808 -0.15032,0.58208 -0.38988,1.52119 -0.53237,2.0869 -0.32896,1.30609 -1.74941,4.26574 -2.24447,4.67661 -0.20726,0.17201 -0.37851,0.44699 -0.38056,0.61107 -0.003,0.24528 -1.50518,2.12124 -2.30257,2.87565 -1.37351,1.29948 -2.52143,2.31747 -2.61325,2.31747 -0.0626,0 -0.91612,0.51905 -1.89664,1.15344 -1.05019,0.67946 -2.76127,1.45583 -4.16401,1.88934 -1.30969,0.40475 -2.588,0.83821 -2.84069,0.96323 -0.25268,0.12503 -1.38378,0.21295 -2.51354,0.19538 l -2.05411,-0.0319 z m -15.343164,-3.41856 c 0.0914,-0.14789 0.277024,-0.2004 0.41249,-0.11667 0.366988,0.22681 0.298558,0.38557 -0.166189,0.38557 -0.22687,0 -0.337705,-0.121 -0.246301,-0.2689 z m 1.320249,-1.30315 c -0.727604,-0.40873 -1.412213,-0.69145 -1.521354,-0.62826 -0.109141,0.0632 -0.198438,-0.0707 -0.198438,-0.29761 0,-0.22687 -0.114873,-0.41249 -0.255274,-0.41249 -0.140401,0 -0.372341,-0.21875 -0.515423,-0.4861 -0.196136,-0.36648 -0.117048,-0.69087 0.32142,-1.31834 0.319863,-0.45774 0.717659,-0.83431 0.883991,-0.83683 0.166332,-0.002 0.359546,-0.1534 0.429364,-0.3353 0.06982,-0.1819 0.80225,-0.56023 1.627625,-0.84074 1.344392,-0.45689 1.642637,-0.47363 2.863737,-0.16067 1.920807,0.49229 3.904977,1.96152 3.904977,2.89155 0,0.3938 0.14883,0.86731 0.33073,1.05223 0.26662,0.27105 0.1927,0.30215 -0.38134,0.16043 -0.52532,-0.1297 -0.868,-0.0305 -1.30666,0.37815 -0.32703,0.30467 -0.69823,0.55395 -0.8249,0.55395 -0.12667,0 -0.14422,0.1393 -0.039,0.30955 0.12315,0.19926 0.0541,0.25688 -0.19391,0.16172 -0.21187,-0.0813 -0.61134,0.0175 -0.887719,0.21962 -0.831976,0.60836 -2.755409,0.42188 -4.237826,-0.41086 z m 4.399459,-0.12567 c 0.490716,-0.20614 1.368456,-0.79048 1.950546,-1.29852 l 1.05833,-0.92373 -0.77775,-0.81881 c -2.0292,-2.13633 -4.868789,-2.45259 -7.167375,-0.79826 -1.833782,1.31981 -1.96647,1.63615 -1.031756,2.45984 1.87275,1.6503 4.098591,2.1648 5.968005,1.37948 z m -8.632792,-2.27103 c -0.08994,-0.14552 0.02912,-0.26458 0.264583,-0.26458 0.235458,0 0.35452,0.11906 0.264583,0.26458 -0.08994,0.14552 -0.208999,0.26459 -0.264583,0.26459 -0.05558,0 -0.174646,-0.11907 -0.264583,-0.26459 z m -1.391161,-3.23427 c -0.328577,-0.15843 -0.571217,-0.41826 -0.539201,-0.57741 0.08147,-0.40497 -0.876154,-2.8029 -1.119345,-2.8029 -0.10983,0 -0.26564,-0.38695 -0.346244,-0.8599 -0.0806,-0.47294 -0.279924,-1.4552 -0.442933,-2.18281 -0.51676,-2.30659 -0.599547,-3.34032 -0.292136,-3.64773 0.162009,-0.16201 0.294561,-0.68044 0.294561,-1.15207 0,-0.47163 0.119063,-0.93109 0.264584,-1.02103 0.145521,-0.0899 0.264583,-0.39462 0.264583,-0.67707 0,-0.28246 0.119063,-0.51356 0.264583,-0.51356 0.145521,0 0.264584,-0.16089 0.264584,-0.35754 0,-0.34314 3.263996,-3.61121 3.606705,-3.61121 0.09161,0 0.746597,-0.41672 1.455537,-0.92604 0.708941,-0.50932 1.404148,-0.92604 1.544906,-0.92604 0.140758,0 0.685242,-0.24113 1.209964,-0.53585 0.952812,-0.53517 0.953824,-0.53517 0.785437,-0.005 -0.108827,0.34288 0.118615,1.05458 0.641506,2.00736 0.445561,0.81187 0.810111,1.68311 0.810111,1.93608 0,0.25297 0.112158,0.57306 0.249239,0.71131 0.318078,0.32078 0.808049,3.32777 0.795419,4.88156 -0.02826,3.47639 -1.87328,6.12376 -6.38398,9.1602 -2.234867,1.50444 -2.384827,1.55397 -3.32788,1.09928 z m 2.217731,-0.9176 c 3.276498,-1.80903 5.299479,-3.74988 6.415266,-6.1548 0.843455,-1.81796 0.925592,-4.83302 0.198543,-7.28812 -0.622029,-2.10047 -2.045318,-4.89479 -2.493164,-4.89479 -0.65376,0 -3.954068,2.09431 -5.439099,3.45154 -2.780693,2.5414 -3.750305,5.61743 -2.967232,9.41334 0.46941,2.27546 2.159519,6.18512 2.673764,6.18512 0.177005,0 0.90237,-0.32053 1.611922,-0.71229 z m 5.126555,-2.72729 c 0,-0.14552 0.119062,-0.26459 0.264583,-0.26459 0.145521,0 0.264583,0.11907 0.264583,0.26459 0,0.14552 -0.119062,0.26458 -0.264583,0.26458 -0.145521,0 -0.264583,-0.11906 -0.264583,-0.26458 z m 2.805383,-8.51077 c 0.075,-0.12126 0.2483,-0.22048 0.38523,-0.22048 0.13693,0 0.24897,0.0992 0.24897,0.22048 0,0.12127 -0.17336,0.22049 -0.38524,0.22049 -0.21188,0 -0.323912,-0.0992 -0.24896,-0.22049 z m -1.74705,-5.77673 c 0,-0.14552 0.126089,-0.26459 0.280198,-0.26459 0.154109,0 0.206614,0.11907 0.116677,0.26459 -0.08994,0.14552 -0.216026,0.26458 -0.280198,0.26458 -0.06417,0 -0.116677,-0.11906 -0.116677,-0.26458 z"
       id="path1" /></g></svg>
