<svg width="251" height="250" viewBox="0 0 251 250" fill="none" xmlns="http://www.w3.org/2000/svg">
<path d="M185.937 153.398H225.923V122.553H185.937V153.398Z" fill="#BDBDBD"/>
<path d="M188.787 150.709H193.607V145.264H188.787V150.709Z" fill="white"/>
<path d="M213.727 122.636H209.184V129.216H213.727V122.636Z" fill="#FAFAFA"/>
<path d="M213.727 146.725H209.184V153.304H213.727V146.725Z" fill="#FAFAFA"/>
<path d="M195.914 153.614C195.842 153.614 195.787 146.83 195.787 138.463C195.787 130.096 195.842 123.311 195.914 123.311C195.986 123.311 196.042 130.096 196.042 138.463C196.042 146.83 195.986 153.614 195.914 153.614Z" fill="#E0E0E0"/>
<path d="M169.624 206.516H238.618V153.299H169.624V206.516Z" fill="#BDBDBD"/>
<path d="M174.56 201.868H182.872V192.472H174.56V201.868Z" fill="white"/>
<path d="M217.574 153.437H209.738V164.792H217.574V153.437Z" fill="#FAFAFA"/>
<path d="M217.574 195.001H209.738V206.356H217.574V195.001Z" fill="#FAFAFA"/>
<path d="M186.85 206.881C186.729 206.881 186.629 195.178 186.629 180.74C186.629 166.303 186.729 154.599 186.85 154.599C186.972 154.599 187.066 166.303 187.066 180.74C187.066 195.178 186.972 206.881 186.85 206.881Z" fill="#E0E0E0"/>
<path d="M236.427 42.6131L240.124 50.1002L248.391 51.301L242.409 57.1336L243.82 65.3622L236.427 61.4775L229.04 65.3622L230.451 57.1336L224.469 51.301L232.736 50.1002L236.427 42.6131Z" fill="#EBEBEB"/>
<path d="M36.3455 139.315L38.6752 144.035L43.888 144.793L40.1195 148.468L41.0049 153.658L36.3455 151.207L31.6917 153.658L32.5771 148.468L28.8086 144.793L34.0214 144.035L36.3455 139.315Z" fill="#EBEBEB"/>
<path d="M39.2395 98.1993L44.408 108.68L55.9735 110.357L47.6065 118.519L49.582 130.035L39.2395 124.601L28.8914 130.035L30.867 118.519L22.5 110.357L34.0655 108.68L39.2395 98.1993Z" fill="#EBEBEB"/>
<path d="M233.139 76.4297L235.364 80.9453L240.35 81.6702L236.747 85.1896L237.594 90.1534L233.139 87.8071L228.679 90.1534L229.531 85.1896L225.923 81.6702L230.909 80.9453L233.139 76.4297Z" fill="#EBEBEB"/>
<path d="M159.967 3.24628L162.197 7.76179L167.183 8.48671L163.575 12.0006L164.427 16.9644L159.967 14.6236L155.513 16.9644L156.365 12.0006L152.757 8.48671L157.743 7.76179L159.967 3.24628Z" fill="#EBEBEB"/>
<path d="M210.977 51.5778L212.438 54.5328L215.697 55.0087L213.34 57.3107L213.893 60.559L210.977 59.0206L208.055 60.559L208.614 57.3107L206.257 55.0087L209.516 54.5328L210.977 51.5778Z" fill="#EBEBEB"/>
<path d="M76.3416 200.822L79.1804 206.577L85.5386 207.501L80.9401 211.984L82.0247 218.314L76.3416 215.326L70.6584 218.314L71.743 211.984L67.1445 207.501L73.4972 206.577L76.3416 200.822Z" fill="#EBEBEB"/>
<path d="M83.8456 195.095L85.0188 197.474L87.6417 197.856L85.7437 199.71L86.1919 202.322L83.8456 201.088L81.4938 202.322L81.942 199.71L80.0439 197.856L82.6725 197.474L83.8456 195.095Z" fill="#EBEBEB"/>
<path d="M188.792 173.048L191.293 178.111L196.877 178.919L192.837 182.865L193.789 188.426L188.792 185.798L183.795 188.426L184.747 182.865L180.707 178.919L186.291 178.111L188.792 173.048Z" fill="#FABC1D"/>
<path d="M200.712 168.56L201.891 170.945L204.525 171.327L202.621 173.186L203.069 175.809L200.712 174.57L198.36 175.809L198.808 173.186L196.905 171.327L199.539 170.945L200.712 168.56Z" fill="#FABC1D"/>
<path d="M185.091 36.775L187.061 30.6547C185.183 26.8737 184.613 22.5768 185.439 18.4371C186.266 14.2974 188.442 10.5488 191.628 7.77852C194.813 5.00829 198.827 3.37295 203.041 3.12871C207.256 2.88446 211.432 4.04512 214.916 6.42883C218.4 8.81254 220.995 12.2846 222.294 16.3012C223.593 20.3177 223.523 24.6517 222.095 28.6242C220.667 32.5967 217.962 35.9833 214.403 38.2534C210.844 40.5235 206.632 41.5488 202.428 41.1687C198.325 40.8893 194.444 39.2092 191.432 36.4097L185.091 36.775Z" fill="#FAFAFA"/>
<path d="M185.091 36.775L185.511 36.7418L186.734 36.6533L191.432 36.3323C193.761 38.4862 196.629 39.97 199.733 40.6265C200.691 40.8394 201.664 40.9782 202.644 41.0415L204.193 41.1024C204.713 41.1024 205.25 41.0415 205.787 41.0139C210.641 40.5734 215.139 38.2806 218.348 34.6114C220.157 32.5732 221.499 30.1655 222.283 27.5559C223.085 24.7672 223.248 21.8334 222.759 18.9731C222.637 18.2378 222.467 17.5113 222.249 16.7983C222.151 16.4372 222.031 16.0824 221.89 15.7359C221.751 15.3817 221.63 15.0275 221.48 14.6789C220.864 13.2715 220.084 11.9416 219.156 10.7168C218.694 10.1062 218.193 9.52582 217.656 8.97919C217.396 8.70046 217.119 8.43804 216.826 8.1934C216.544 7.94438 216.273 7.67323 215.974 7.44635L215.067 6.77123L214.613 6.43921L214.126 6.15146L213.169 5.59809C212.842 5.41547 212.499 5.27713 212.167 5.11112C209.624 3.90752 206.843 3.28968 204.029 3.30309C201.216 3.3165 198.441 3.96081 195.909 5.18859C191.522 7.29546 188.115 11.0113 186.397 15.5643C186.302 15.8189 186.214 16.0734 186.125 16.3224C186.025 16.5681 185.946 16.8217 185.887 17.0805C185.76 17.5897 185.638 18.0932 185.517 18.5857C185.349 19.5507 185.234 20.5243 185.174 21.502C185.05 24.6646 185.715 27.8083 187.11 30.6492L185.627 35.1758L185.234 36.3489C185.146 36.6146 185.096 36.7529 185.096 36.7529C185.096 36.7529 185.129 36.6256 185.212 36.3656L185.566 35.2035L186.989 30.616V30.6603C185.556 27.8141 184.864 24.6531 184.974 21.4688C185.026 20.4802 185.135 19.4954 185.301 18.5193C185.423 18.0213 185.55 17.5122 185.672 16.9975C185.73 16.7359 185.808 16.4788 185.904 16.2284C185.998 15.9738 186.087 15.7193 186.181 15.4592C187.105 12.9768 188.534 10.7133 190.379 8.81203C192.223 6.91075 194.442 5.41308 196.895 4.41383C199.348 3.41458 201.982 2.93551 204.63 3.00696C207.278 3.07841 209.882 3.69882 212.278 4.8289C212.615 4.98938 212.964 5.13326 213.296 5.3214L214.27 5.90244L214.757 6.19573L215.222 6.53328L216.14 7.21393C216.445 7.45188 216.721 7.72303 217.009 7.97205C217.304 8.22189 217.585 8.48792 217.85 8.76891C218.394 9.32671 218.902 9.91814 219.372 10.5397C220.318 11.7716 221.114 13.1108 221.746 14.5295C221.895 14.8837 222.017 15.2489 222.155 15.603C222.302 15.9638 222.426 16.3335 222.526 16.7098C222.745 17.4354 222.915 18.1749 223.035 18.9233C223.535 21.826 223.369 24.8044 222.548 27.6333C221.762 30.2927 220.404 32.748 218.57 34.8272C215.312 38.5312 210.755 40.8413 205.842 41.2795C205.289 41.2795 204.735 41.357 204.226 41.357L202.66 41.2906C201.671 41.2214 200.689 41.0771 199.722 40.8589C196.607 40.1768 193.737 38.6577 191.421 36.4652H191.465L186.723 36.7142L185.517 36.7695C185.223 36.775 185.091 36.775 185.091 36.775Z" fill="#263238"/>
<path d="M193.314 21.4632L196.452 18.7461L201.742 24.1747L213.589 14.3026L216.102 17.4236L200.917 29.7914L193.314 21.4632Z" fill="#FABC1D"/>
<path d="M132.337 168.831L146.227 242.192L158.915 218.746L182.965 232.862L157.432 161.427L132.337 168.831Z" fill="#FABC1D"/>
<g opacity="0.3">
<path opacity="0.3" d="M137.013 193.506C138.335 193.755 139.698 193.679 140.984 193.285C142.27 192.891 143.44 192.19 144.395 191.243C145.663 189.937 146.504 188.155 148.097 187.281C149.531 186.495 151.296 186.606 152.873 187.043C154.45 187.48 155.933 188.205 157.51 188.614C159.066 189.011 160.686 189.094 162.274 188.858C163.863 188.623 165.389 188.073 166.763 187.242L162.756 176.119L144.163 173.795L135.309 184.448L137.013 193.506Z" fill="black"/>
</g>
<path d="M158.013 215.835C157.936 215.835 155.866 208.231 153.393 198.819C150.919 189.406 148.966 181.747 149.054 181.73C149.143 181.714 151.196 189.323 153.669 198.747C156.143 208.171 158.091 215.813 158.013 215.835Z" fill="#263238"/>
<path d="M134.374 172.65L120.489 246.005L107.795 222.558L83.7456 236.675L109.278 165.246L134.374 172.65Z" fill="#FABC1D"/>
<g opacity="0.3">
<path opacity="0.3" d="M101.642 186.611C101.642 186.611 105.593 189.86 110.302 188.366C115.011 186.871 117.938 186.55 120.489 188.366C123.04 190.181 129.941 196.085 129.941 196.085L131.54 187.624L122.271 174.896L112.598 176.85L105.714 177.519L103.152 182.373L101.642 186.611Z" fill="black"/>
</g>
<path d="M215.78 106.433C215.78 111.696 209.057 116.228 208.072 121.203C207.059 126.327 211.519 133.084 209.566 137.804C207.613 142.524 199.605 144.218 196.766 148.484C193.928 152.751 195.422 160.741 191.786 164.382C188.15 168.024 180.165 166.491 175.888 169.363C171.61 172.235 170.005 180.17 165.208 182.162C160.493 184.116 153.736 179.656 148.606 180.668C143.626 181.653 139.1 188.377 133.837 188.377C128.574 188.377 124.037 181.653 119.062 180.668C113.938 179.656 107.181 184.116 102.461 182.162C97.7406 180.209 96.0528 172.202 91.7863 169.363C87.5198 166.524 79.5291 168.018 75.8824 164.382C72.2357 160.747 73.774 152.762 70.902 148.484C68.03 144.207 60.0947 142.602 58.1081 137.804C56.1215 133.006 60.6149 126.333 59.6022 121.203C58.6172 116.223 51.8882 111.696 51.8882 106.433C51.8882 101.171 58.6172 96.6332 59.6022 91.6583C60.6149 86.5341 56.1491 79.7775 58.1081 75.0572C60.067 70.3369 68.0688 68.6436 70.902 64.3827C73.7353 60.1217 72.2467 52.1255 75.8824 48.4788C79.518 44.832 87.5032 46.3704 91.7863 43.4984C96.0694 40.6264 97.6631 32.6911 102.461 30.7045C107.259 28.7179 113.932 33.2112 119.062 32.1986C124.042 31.2136 128.574 24.4846 133.837 24.4846C139.1 24.4846 143.632 31.2136 148.606 32.1986C153.731 33.2112 160.487 28.7455 165.208 30.7045C170.005 32.6911 171.621 40.6651 175.888 43.4984C180.154 46.3317 188.145 44.8431 191.786 48.4788C195.427 52.1144 193.894 60.0996 196.766 64.3827C199.638 68.6658 207.574 70.2595 209.566 75.0572C211.558 79.8549 207.059 86.5286 208.072 91.6583C209.057 96.6332 215.78 101.154 215.78 106.433Z" fill="#FABC1D"/>
<path d="M114.662 60.498C114.662 60.498 114.601 60.426 114.513 60.2711C114.424 60.1161 114.286 59.8671 114.137 59.596C113.81 59.0094 113.362 58.1461 112.831 57.0726C111.763 54.9255 110.379 51.9041 109.046 48.4953C107.712 45.0866 106.688 41.9213 106.019 39.6414C105.687 38.4848 105.432 37.5496 105.272 36.8745C105.2 36.5757 105.139 36.3212 105.095 36.1219C105.066 36.0363 105.051 35.9466 105.05 35.8563C105.093 35.937 105.127 36.0224 105.15 36.1109L105.377 36.8469C105.593 37.5275 105.875 38.4461 106.212 39.5584C106.932 41.8438 107.989 44.9814 109.311 48.4123C110.634 51.8432 111.995 54.837 113.013 57.0062L114.236 59.5683L114.563 60.2655C114.603 60.3398 114.636 60.4176 114.662 60.498Z" fill="#263238"/>
<path d="M121.956 57.7256C121.859 57.5324 121.787 57.328 121.74 57.1169C121.624 56.7185 121.469 56.1374 121.286 55.4181C120.921 53.9848 120.467 51.9816 120.058 49.7571C119.648 47.5325 119.361 45.5016 119.195 44.0297C119.106 43.2937 119.051 42.696 119.018 42.281C118.992 42.0678 118.992 41.8523 119.018 41.6391C119.081 41.8445 119.124 42.0559 119.145 42.2699L119.41 44.002C119.632 45.4684 119.964 47.4882 120.357 49.7073C120.75 51.9263 121.187 53.9295 121.497 55.3738C121.646 56.0489 121.768 56.6244 121.867 57.0892C121.918 57.2979 121.948 57.5111 121.956 57.7256Z" fill="#263238"/>
<path d="M134.822 56.4473C134.739 56.4473 134.534 50.2384 134.363 42.5853C134.191 34.9322 134.114 28.7178 134.191 28.7123C134.269 28.7068 134.479 34.9156 134.651 42.5798C134.822 50.244 134.9 56.4473 134.822 56.4473Z" fill="#263238"/>
<path d="M147.77 43.692C147.848 43.692 146.951 46.8185 145.773 50.6257C144.594 54.4329 143.559 57.493 143.504 57.4709C143.449 57.4488 144.323 54.3444 145.502 50.5372C146.68 46.73 147.687 43.6698 147.77 43.692Z" fill="#263238"/>
<path d="M153.05 59.7342C153.061 59.6426 153.085 59.5531 153.122 59.4686L153.371 58.7381C153.592 58.1073 153.924 57.1997 154.367 56.0819C155.236 53.8685 156.475 50.7751 157.892 47.3995C159.308 44.024 160.625 40.986 161.594 38.7946C162.07 37.7321 162.463 36.8578 162.761 36.2048L163.088 35.5076C163.171 35.3526 163.215 35.2696 163.226 35.2752C163.206 35.3623 163.178 35.4474 163.143 35.5297L162.861 36.2491L161.782 38.8776C160.836 41.1243 159.569 44.1568 158.157 47.5157C156.746 50.8747 155.496 53.9072 154.555 56.1594L153.476 58.7824L153.172 59.4907C153.141 59.5766 153.1 59.6583 153.05 59.7342Z" fill="#263238"/>
<path d="M159.945 63.3423C160.029 63.1466 160.135 62.961 160.26 62.7889C160.482 62.4348 160.814 61.9312 161.223 61.317C162.053 60.094 163.248 58.4228 164.637 56.641C166.026 54.8591 167.36 53.3207 168.345 52.214C168.838 51.6606 169.247 51.2235 169.535 50.9246C169.673 50.7589 169.831 50.6102 170.005 50.4819C169.898 50.6707 169.768 50.8454 169.618 51.0021C169.319 51.3673 168.943 51.8156 168.511 52.3468C167.565 53.4867 166.264 55.0639 164.875 56.8457C163.486 58.6276 162.275 60.2711 161.4 61.4664L160.365 62.8775C160.242 63.0466 160.101 63.2024 159.945 63.3423Z" fill="#263238"/>
<path d="M170.027 71.5876C169.972 71.5322 174.355 67.3709 179.805 62.2965C185.256 57.222 189.727 53.1548 189.766 53.2101C189.805 53.2654 185.444 57.4323 179.988 62.5067C174.532 67.5812 170.083 71.6484 170.027 71.5876Z" fill="#263238"/>
<path d="M187.613 73.3085C187.08 73.6459 186.525 73.949 185.953 74.216C184.913 74.7694 183.502 75.5386 181.941 76.4295C180.381 77.3204 178.942 78.0619 177.874 78.56C177.32 78.809 176.911 79.0027 176.601 79.1133C176.45 79.1922 176.287 79.2481 176.12 79.2794C176.653 78.9419 177.208 78.6388 177.78 78.3718C178.82 77.8185 180.231 77.0493 181.792 76.1583C183.352 75.2674 184.791 74.4982 185.859 74.0279C186.412 73.7788 186.822 73.5852 187.132 73.4745C187.282 73.3933 187.445 73.3373 187.613 73.3085Z" fill="#263238"/>
<path d="M203.877 80.0541C203.905 80.1315 198.692 82.0351 192.256 84.3095C185.821 86.5838 180.547 88.3602 180.525 88.2882C180.503 88.2163 185.705 86.3072 192.146 84.0328C198.587 81.7584 203.85 79.9821 203.877 80.0541Z" fill="#263238"/>
<path d="M209.057 109.643C209.057 109.72 203.385 109.25 196.407 108.586C189.429 107.922 183.773 107.319 183.784 107.236C183.795 107.153 189.451 107.634 196.434 108.298C203.418 108.962 209.062 109.565 209.057 109.643Z" fill="#263238"/>
<path d="M204.89 136.183C204.857 136.255 199.561 133.82 193.064 130.754C186.568 127.688 181.327 125.137 181.361 125.065C181.394 124.993 186.689 127.423 193.186 130.494C199.683 133.565 204.923 136.111 204.89 136.183Z" fill="#263238"/>
<path d="M187.47 161.433C187.409 161.483 183.596 157.05 178.942 151.539C174.288 146.027 170.57 141.506 170.642 141.456C170.714 141.406 174.515 145.833 179.169 151.35C183.823 156.868 187.531 161.377 187.47 161.433Z" fill="#263238"/>
<path d="M172.927 164.792C172.755 164.6 172.601 164.393 172.467 164.172C172.185 163.763 171.787 163.159 171.311 162.412C170.348 160.913 169.059 158.815 167.697 156.464C166.336 154.112 165.174 151.943 164.377 150.377C163.973 149.585 163.647 148.943 163.436 148.495C163.311 148.267 163.208 148.028 163.126 147.781C163.283 147.988 163.42 148.208 163.536 148.44C163.802 148.927 164.145 149.546 164.56 150.282C165.417 151.837 166.613 153.985 167.968 156.336C169.324 158.688 170.586 160.797 171.505 162.318C171.936 163.049 172.301 163.652 172.584 164.128C172.722 164.336 172.837 164.559 172.927 164.792Z" fill="#263238"/>
<path d="M163.896 177.464C163.896 177.464 163.84 177.392 163.752 177.237L163.392 176.562C163.077 175.97 162.651 175.107 162.142 174.033C161.123 171.881 159.812 168.859 158.567 165.439C157.322 162.02 156.381 158.865 155.8 156.585C155.496 155.434 155.247 154.494 155.125 153.846C155.064 153.547 155.014 153.293 154.97 153.094C154.948 153.007 154.935 152.918 154.931 152.828C154.976 152.907 155.008 152.993 155.025 153.083L155.235 153.819C155.429 154.505 155.684 155.418 155.994 156.53C156.647 158.815 157.615 161.959 158.86 165.384C160.105 168.809 161.378 171.814 162.352 173.989L163.514 176.551C163.636 176.828 163.741 177.06 163.829 177.248C163.86 177.317 163.883 177.39 163.896 177.464Z" fill="#263238"/>
<path d="M145.601 168.56C145.481 167.924 145.402 167.281 145.363 166.635C145.236 165.445 145.031 163.801 144.732 162.003C144.434 160.204 144.085 158.589 143.819 157.421C143.645 156.796 143.512 156.16 143.421 155.517C143.503 155.671 143.566 155.835 143.609 156.004C143.72 156.325 143.858 156.79 144.019 157.371C144.334 158.528 144.71 160.138 145.015 161.959C145.279 163.501 145.464 165.056 145.568 166.618C145.607 167.216 145.629 167.725 145.629 168.04C145.643 168.214 145.634 168.389 145.601 168.56Z" fill="#263238"/>
<path d="M133.632 184.492C133.619 184.398 133.619 184.303 133.632 184.21C133.632 183.988 133.632 183.717 133.632 183.396C133.632 182.688 133.632 181.664 133.632 180.402C133.676 177.874 133.792 174.387 133.991 170.541C134.191 166.695 134.44 163.209 134.644 160.691C134.744 159.43 134.838 158.412 134.91 157.709C134.949 157.388 134.976 157.117 134.999 156.901C135.005 156.805 135.024 156.71 135.054 156.619C135.067 156.714 135.067 156.811 135.054 156.906C135.054 157.122 135.054 157.393 135.015 157.72C134.971 158.467 134.916 159.474 134.844 160.702C134.694 163.265 134.495 166.729 134.29 170.552C134.085 174.376 133.942 177.885 133.847 180.408C133.803 181.637 133.764 182.622 133.737 183.396C133.737 183.723 133.704 183.988 133.693 184.21C133.686 184.306 133.666 184.401 133.632 184.492Z" fill="#263238"/>
<path d="M123.904 156.619C123.9 157.095 123.844 157.57 123.738 158.035C123.594 158.898 123.361 160.088 123.057 161.389C122.753 162.689 122.432 163.862 122.177 164.709C122.067 165.172 121.905 165.621 121.696 166.048C121.745 165.575 121.84 165.108 121.978 164.654L122.775 161.333C123.063 160.088 123.328 158.959 123.539 158.013C123.615 157.538 123.738 157.071 123.904 156.619Z" fill="#263238"/>
<path d="M106.313 148.191C105.588 149.389 104.779 150.536 103.894 151.622C103.082 152.764 102.197 153.853 101.244 154.881C101.967 153.681 102.775 152.535 103.662 151.45C104.47 150.304 105.356 149.215 106.313 148.191Z" fill="#263238"/>
<path d="M97.0875 141.971C97.1428 142.021 93.7119 146.055 89.4178 150.974C85.1236 155.894 81.5875 159.828 81.5267 159.789C81.4658 159.751 84.9022 155.705 89.1964 150.786C93.4906 145.867 97.0266 141.915 97.0875 141.971Z" fill="#263238"/>
<path d="M92.4669 135.104C91.1098 136.412 89.6858 137.65 88.2004 138.811C85.7932 140.792 83.8011 142.353 83.7734 142.292C85.1315 140.986 86.5555 139.75 88.0399 138.59C89.4562 137.354 90.9337 136.191 92.4669 135.104Z" fill="#263238"/>
<path d="M87.0659 124.75C87.0991 124.822 82.318 127.201 76.3803 130.057C70.4427 132.912 65.6117 135.175 65.573 135.103C65.5343 135.032 70.3209 132.658 76.2586 129.797C82.1963 126.936 87.0327 124.678 87.0659 124.75Z" fill="#263238"/>
<path d="M84.8967 119.587C84.7377 119.657 84.5703 119.705 84.3986 119.731C84.0721 119.808 83.6018 119.908 83.0207 120.013C81.8531 120.234 80.2262 120.478 78.4222 120.661C76.6182 120.843 74.9747 120.921 73.7849 120.937C73.1928 120.937 72.7114 120.937 72.3794 120.937C72.2063 120.948 72.0325 120.932 71.8647 120.887C72.4995 120.8 73.1388 120.75 73.7794 120.738C74.9636 120.666 76.5961 120.555 78.3945 120.373C80.193 120.19 81.8144 119.98 82.9875 119.819C83.6176 119.697 84.2556 119.619 84.8967 119.587Z" fill="#263238"/>
<path d="M83.1425 107.662C82.8202 107.688 82.4963 107.688 82.1741 107.662L79.54 107.529C77.3265 107.418 74.2498 107.319 70.8576 107.335C67.4654 107.352 64.3887 107.49 62.1697 107.623L59.5412 107.783C59.2197 107.82 58.8959 107.831 58.5728 107.817C58.8871 107.741 59.2074 107.693 59.5301 107.673C60.1499 107.601 61.0463 107.512 62.1531 107.418C64.3666 107.236 67.4544 107.07 70.8521 107.047C74.2498 107.025 77.3321 107.164 79.5566 107.324C80.6633 107.407 81.5653 107.485 82.1851 107.551C82.5064 107.565 82.8263 107.602 83.1425 107.662Z" fill="#263238"/>
<path d="M84.2269 97.192C84.2269 97.2695 80.6245 96.3343 76.2252 95.1058C71.8259 93.8773 68.2787 92.8259 68.3009 92.7484C68.323 92.6709 71.9033 93.6006 76.3026 94.8291C80.7019 96.0576 84.2491 97.1145 84.2269 97.192Z" fill="#263238"/>
<path d="M86.5459 88.4267C86.457 88.4214 86.3693 88.4028 86.2859 88.3713L85.5499 88.15C84.919 87.9508 84.006 87.6409 82.8937 87.2369C79.9874 86.1698 77.1391 84.9507 74.3607 83.5847C71.5833 82.2171 68.8809 80.7024 66.2649 79.047C65.2633 78.4106 64.4609 77.8794 63.9186 77.4976L63.2988 77.0494C63.1605 76.9442 63.0885 76.8889 63.094 76.8778C63.1777 76.9115 63.2575 76.9542 63.332 77.0051L63.985 77.4035C64.5383 77.7577 65.3573 78.2612 66.37 78.8755C68.4009 80.104 71.2452 81.7253 74.488 83.3025C77.7307 84.8796 80.7521 86.1634 82.9656 87.0266C84.0724 87.4527 84.9633 87.7903 85.5886 88.0227L86.3025 88.2939C86.3872 88.3313 86.4686 88.3757 86.5459 88.4267Z" fill="#263238"/>
<path d="M91.753 79.5728C91.7087 79.6336 88.9086 77.7411 85.4999 75.3395C82.0911 72.9378 79.363 70.9402 79.4128 70.8738C79.4626 70.8074 82.2571 72.7054 85.6714 75.1071C89.0857 77.5087 91.7972 79.523 91.753 79.5728Z" fill="#263238"/>
<path d="M80.7467 52.6899C80.7467 52.6899 80.8241 52.7342 80.9569 52.8393L81.5103 53.3263L83.5522 55.1303L90.2536 61.1122L96.9826 67.0609L99.019 68.8705L99.5723 69.374C99.6392 69.4289 99.6987 69.4922 99.7494 69.5622C99.7494 69.5622 99.672 69.5234 99.5336 69.4183L98.9802 68.959C98.4767 68.5551 97.7628 67.9574 96.883 67.2159C95.1232 65.7329 92.7216 63.6577 90.0931 61.328C87.4646 58.9983 85.1128 56.8512 83.4526 55.2797C82.6115 54.4939 81.9364 53.8575 81.4716 53.4037L80.9459 52.8836C80.8131 52.7618 80.7356 52.6954 80.7467 52.6899Z" fill="#263238"/>
<path d="M98.0059 53.1935C98.0059 53.1935 98.1553 53.3152 98.3821 53.5753C98.609 53.8354 98.9355 54.2172 99.3173 54.6821C100.087 55.6449 101.11 57.0062 102.173 58.5557C103.235 60.1051 104.126 61.5549 104.74 62.6229C105.05 63.1763 105.294 63.5913 105.449 63.8957C105.544 64.0471 105.619 64.211 105.67 64.3827C105.264 63.8546 104.895 63.3 104.563 62.7225C103.905 61.6822 102.986 60.26 101.929 58.7106C100.872 57.1612 99.8763 55.7943 99.1624 54.8038C98.7452 54.2905 98.359 53.7528 98.0059 53.1935Z" fill="#263238"/>
<g opacity="0.2">
<path opacity="0.2" d="M75.8877 48.4842L99.9649 69.5622L105.947 64.7755L91.9797 43.3711C91.9797 43.3711 90.9062 44.1569 88.1061 44.9537C85.4333 45.7229 77.4925 45.9277 75.8877 48.4842Z" fill="black"/>
</g>
<g opacity="0.2">
<path opacity="0.2" d="M102.688 30.6547L114.442 60.0774L121.956 57.7256L119.45 32.2041C119.45 32.2041 118.16 32.5085 115.288 32.1432C112.505 31.7891 105.759 29.1495 102.688 30.6547Z" fill="black"/>
</g>
<g opacity="0.3">
<path opacity="0.3" d="M134.031 24.4956L134.822 56.4472L141.861 56.7848L148.988 32.2594C147.508 31.9653 146.099 31.3824 144.844 30.5439C142.409 28.9834 137.44 24.2355 134.031 24.4956Z" fill="black"/>
</g>
<g opacity="0.2">
<path opacity="0.2" d="M164.731 30.5328L153.05 59.9888L159.391 63.0268L175.467 43.1829C174.259 42.1629 173.228 40.9492 172.418 39.5915C170.902 37.1401 168.29 31.5123 164.731 30.5328Z" fill="black"/>
</g>
<g opacity="0.2">
<path opacity="0.2" d="M192.168 48.9103L170.409 71.5985L175.257 78.1338L196.517 63.9454C195.817 62.656 195.344 61.2559 195.117 59.8062C194.608 57.0393 194.536 52.0147 192.168 48.9103Z" fill="black"/>
</g>
<g opacity="0.2">
<path opacity="0.2" d="M209.344 74.5092L180.043 86.5672L182.472 94.0543L207.966 91.2874C207.966 91.2874 207.806 90.5017 208.143 87.6297C208.464 84.8462 211.408 78.6263 209.344 74.5092Z" fill="black"/>
</g>
<g opacity="0.2">
<path opacity="0.2" d="M215.836 106.433L183.89 107.54L183.625 114.585L207.973 121.712C208.134 120.698 208.46 119.717 208.936 118.807C210.751 115.42 215.836 110.639 215.836 106.433Z" fill="black"/>
</g>
<g opacity="0.2">
<path opacity="0.2" d="M209.942 136.636L180.531 125.176L177.559 131.59L197.575 147.433C198.627 146.425 199.791 145.541 201.044 144.799C203.479 143.244 209.267 140.726 209.942 136.636Z" fill="black"/>
</g>
<g opacity="0.2">
<path opacity="0.2" d="M166.685 136.183L159.402 142.27C159.956 142.823 169.656 159.336 175.638 169.529C175.716 169.462 175.797 169.399 175.882 169.341C179.816 166.707 186.822 167.764 190.773 165.157L166.685 136.183Z" fill="black"/>
<path opacity="0.2" d="M153.305 147.737L142.437 151.445L147.583 180.95C147.917 180.832 148.259 180.738 148.607 180.668C153.731 179.655 160.488 184.116 165.208 182.162C165.854 181.885 166.455 181.512 166.99 181.055L153.305 147.737Z" fill="black"/>
<path opacity="0.2" d="M133.461 188.365L135.193 149.818L125.785 147.433L118.796 180.635L119.051 180.679C123.921 181.625 128.353 188.033 133.461 188.365Z" fill="black"/>
<path opacity="0.2" d="M109.831 143.271C109.831 143.271 97.4136 159.906 90.917 168.859C91.2176 169.011 91.5095 169.179 91.7913 169.363C96.0578 172.218 97.6681 180.17 102.466 182.162C102.687 182.251 102.914 182.323 103.141 182.389L120.489 149.552L109.831 143.271Z" fill="black"/>
<path opacity="0.2" d="M97.0869 129.88L70.6025 148.08C70.7021 148.213 70.8128 148.34 70.9014 148.479C73.7789 152.773 72.246 160.736 75.8817 164.377C76.2173 164.707 76.5885 164.998 76.9884 165.246C86.346 154.698 103.146 135.762 103.755 135.104L97.0869 129.88Z" fill="black"/>
<path opacity="0.2" d="M91.0171 116.881L59.7018 121.939C60.2054 126.963 56.2432 133.305 58.1081 137.798C58.2204 138.073 58.3556 138.338 58.512 138.59C69.4688 133.134 92.3618 121.784 93.3136 121.723L91.0171 116.881Z" fill="black"/>
<path opacity="0.2" d="M89.3072 99.4388L59.7073 90.9003C59.6797 91.1548 59.6465 91.4094 59.6022 91.6584C58.6172 96.6387 51.8882 101.171 51.8882 106.433C51.8897 106.784 51.9193 107.134 51.9767 107.479H88.1064L89.3072 99.4388Z" fill="black"/>
<path opacity="0.2" d="M58.2295 74.8303C69.2969 80.7569 90.9172 92.7485 90.9172 92.7485L96.2406 82.6384L71.2393 63.8237C71.1286 64.0174 71.0234 64.2166 70.9017 64.3771C68.085 68.5772 60.3766 70.2152 58.2295 74.8303Z" fill="black"/>
</g>
<path d="M215.78 106.433L215.747 106.079C215.734 105.732 215.685 105.387 215.603 105.05C215.281 103.723 214.718 102.466 213.943 101.342C212.991 99.8149 211.552 98.105 210.069 95.9413C209.232 94.7904 208.589 93.5098 208.166 92.1507C207.805 90.5643 207.805 88.9173 208.166 87.3309C208.476 85.6431 208.979 83.9055 209.416 82.0628C209.853 80.2201 210.263 78.2279 209.853 76.1915C209.622 75.1608 209.15 74.1994 208.476 73.3859C207.753 72.5576 206.927 71.825 206.019 71.2056C204.181 69.8997 202.068 68.8593 200.048 67.498C199.003 66.8243 198.054 66.0127 197.226 65.0853C196.413 64.0787 195.822 62.9113 195.493 61.66C194.785 59.1421 194.625 56.4527 194.088 53.7633C193.853 52.394 193.391 51.0735 192.721 49.8565C191.993 48.6314 190.889 47.6744 189.572 47.1284C188.214 46.5824 186.791 46.2106 185.339 46.0217C183.873 45.7782 182.367 45.6067 180.862 45.341C179.32 45.1187 177.825 44.6457 176.435 43.941C175.058 43.1128 173.891 41.9763 173.027 40.6208C172.108 39.3037 171.317 37.8871 170.476 36.4871C169.67 35.0546 168.705 33.718 167.598 32.5028C166.458 31.2735 164.902 30.5105 163.232 30.3613C161.526 30.2981 159.82 30.4978 158.174 30.9534C156.514 31.3573 154.81 31.8498 153.066 32.1763C151.304 32.5916 149.466 32.5573 147.721 32.0767C146.02 31.4093 144.428 30.4896 143.001 29.3486C141.523 28.2418 140.084 27.1351 138.507 26.1501C136.93 25.1651 135.143 24.4513 133.283 24.6615H132.935C132.819 24.6615 132.708 24.7113 132.597 24.7335C132.37 24.7888 132.138 24.8275 131.917 24.894C131.471 25.0357 131.035 25.2058 130.611 25.4031C129.755 25.8101 128.933 26.2857 128.154 26.8252C126.582 27.932 125.094 29.1383 123.478 30.234C122.673 30.7971 121.822 31.2896 120.932 31.706C120.021 32.1137 119.045 32.359 118.049 32.4309C116.052 32.4437 114.065 32.1621 112.15 31.5953C110.222 31.0449 108.256 30.6398 106.268 30.3834C105.275 30.2857 104.273 30.353 103.302 30.5826C102.335 30.8515 101.443 31.3401 100.695 32.0103C99.1681 33.3439 98.1056 35.1369 97.0431 36.8966C96.04 38.7392 94.8673 40.4844 93.5403 42.1093C92.8377 42.9143 91.9937 43.5838 91.0501 44.0849C90.0867 44.5403 89.075 44.8856 88.0342 45.1142C85.9535 45.5735 83.8286 45.7671 81.7313 46.1434C79.634 46.5197 77.4925 47.1118 75.9762 48.5838C75.2444 49.3633 74.6795 50.2842 74.3161 51.2898C73.9498 52.304 73.6811 53.351 73.5137 54.4163C73.1264 56.5523 72.9604 58.7437 72.407 60.8963C72.1692 61.9888 71.7721 63.0404 71.2283 64.0173C70.6554 64.9852 69.9044 65.8358 69.0148 66.5241C67.2662 67.9297 65.2796 68.97 63.376 70.1321C62.4223 70.706 61.5072 71.3419 60.6368 72.0357C59.7708 72.7277 59.0425 73.5761 58.4897 74.5369C57.9626 75.5155 57.6958 76.613 57.715 77.7243C57.7346 78.8414 57.8662 79.9538 58.1079 81.0446C58.5727 83.2581 59.2755 85.4328 59.6518 87.685C59.8749 88.8409 59.9196 90.024 59.7846 91.1934C59.6275 92.3598 59.252 93.4862 58.6779 94.5136C57.5213 96.5334 56.0161 98.3098 54.6825 100.191C53.9976 101.118 53.4011 102.108 52.9006 103.146C52.3524 104.159 52.0653 105.293 52.0653 106.444C52.0653 107.596 52.3524 108.73 52.9006 109.742C53.4002 110.781 53.9968 111.771 54.6825 112.697C56.0161 114.579 57.5213 116.355 58.6779 118.375C59.2415 119.383 59.6165 120.486 59.7846 121.629C59.9252 122.782 59.8879 123.951 59.6739 125.093C59.3032 127.367 58.6004 129.548 58.13 131.761C57.8903 132.852 57.7587 133.964 57.7371 135.081C57.7153 136.194 57.9802 137.294 58.5063 138.274C59.0548 139.238 59.7816 140.089 60.6479 140.781C61.5183 141.475 62.4333 142.111 63.387 142.685C65.2906 143.847 67.2606 144.898 69.0314 146.293C69.9195 146.982 70.6703 147.833 71.2449 148.799C71.7927 149.772 72.1901 150.823 72.4236 151.915C72.9438 154.073 73.1208 156.264 73.5303 158.4C73.7022 159.465 73.9726 160.512 74.3383 161.527C74.693 162.532 75.2484 163.455 75.9707 164.238C77.5036 165.727 79.6617 166.319 81.7313 166.695C83.8009 167.072 85.9535 167.249 88.0342 167.725C89.0766 167.954 90.09 168.299 91.0556 168.754C91.9981 169.257 92.8417 169.926 93.5458 170.73C94.8596 172.357 96.0211 174.102 97.0154 175.942C98.0779 177.702 99.1404 179.495 100.668 180.829C101.414 181.498 102.304 181.986 103.269 182.256C104.248 182.504 105.261 182.586 106.268 182.5C108.253 182.233 110.215 181.82 112.139 181.266C114.055 180.694 116.045 180.411 118.044 180.425C119.04 180.5 120.015 180.747 120.927 181.155C121.815 181.573 122.667 182.065 123.472 182.627C125.088 183.734 126.571 184.957 128.148 186.03C128.924 186.574 129.744 187.051 130.6 187.458C131.024 187.654 131.46 187.824 131.906 187.967C132.132 188.028 132.359 188.072 132.586 188.128L132.929 188.199H133.272C135.137 188.41 136.93 187.646 138.502 186.711C140.073 185.776 141.518 184.597 142.99 183.512C144.419 182.371 146.012 181.452 147.715 180.784C149.461 180.306 151.299 180.272 153.061 180.685C154.804 181.017 156.486 181.509 158.169 181.913C159.817 182.364 161.524 182.563 163.232 182.505C164.9 182.35 166.452 181.586 167.592 180.358C168.696 179.138 169.661 177.8 170.47 176.368C171.306 174.974 172.097 173.557 173.016 172.235C173.885 170.881 175.053 169.745 176.43 168.914C177.819 168.209 179.314 167.738 180.857 167.52C182.367 167.249 183.867 167.077 185.334 166.839C186.787 166.641 188.209 166.26 189.567 165.705C190.882 165.157 191.986 164.2 192.716 162.977C193.382 161.759 193.842 160.438 194.077 159.07C194.63 156.381 194.774 153.686 195.488 151.168C195.813 149.917 196.404 148.751 197.22 147.748C198.045 146.818 198.995 146.006 200.042 145.335C202.062 143.974 204.176 142.934 206.008 141.628C206.92 141.01 207.748 140.275 208.47 139.442C209.143 138.631 209.614 137.671 209.842 136.642C210.035 135.648 210.063 134.629 209.925 133.626C209.811 132.664 209.637 131.711 209.405 130.771C208.963 128.928 208.464 127.19 208.155 125.502C207.794 123.916 207.794 122.269 208.155 120.683C208.58 119.324 209.223 118.044 210.058 116.892C211.558 114.728 213.002 113.018 213.932 111.491C214.708 110.368 215.271 109.111 215.592 107.783C215.675 107.446 215.723 107.101 215.736 106.754L215.769 106.406C215.769 106.406 215.769 106.522 215.769 106.754C215.758 107.103 215.714 107.449 215.636 107.789C215.321 109.127 214.758 110.394 213.976 111.524C213.03 113.063 211.597 114.778 210.102 116.942C209.272 118.085 208.638 119.359 208.227 120.71C207.867 122.28 207.867 123.911 208.227 125.48C208.536 127.14 209.04 128.895 209.488 130.737C209.729 131.685 209.914 132.646 210.042 133.615C210.179 134.631 210.151 135.662 209.959 136.669C209.728 137.722 209.25 138.705 208.564 139.536C207.835 140.378 207 141.122 206.079 141.749C204.231 143.066 202.123 144.112 200.114 145.468C199.088 146.135 198.158 146.937 197.347 147.853C196.548 148.84 195.971 149.988 195.654 151.218C194.951 153.708 194.796 156.397 194.254 159.103C194.02 160.494 193.554 161.835 192.876 163.071C192.128 164.331 190.995 165.316 189.644 165.882C188.273 166.445 186.836 166.832 185.367 167.033C183.895 167.276 182.39 167.448 180.89 167.719C179.367 167.937 177.891 168.402 176.518 169.097C175.18 169.909 174.044 171.017 173.198 172.334C172.291 173.646 171.499 175.057 170.658 176.462C169.844 177.909 168.872 179.26 167.758 180.491C166.582 181.76 164.977 182.548 163.254 182.704C161.522 182.773 159.79 182.573 158.119 182.112C156.431 181.708 154.749 181.221 153.022 180.895C151.298 180.492 149.501 180.524 147.793 180.989C146.116 181.65 144.547 182.559 143.139 183.684C141.673 184.763 140.228 185.925 138.635 186.899C138.219 187.12 137.827 187.38 137.395 187.563C137.179 187.663 136.969 187.768 136.753 187.856L136.083 188.094C135.176 188.406 134.211 188.519 133.256 188.426L132.896 188.399C132.78 188.399 132.664 188.349 132.542 188.327C132.309 188.271 132.072 188.227 131.845 188.161C131.385 188.019 130.936 187.845 130.5 187.641C129.632 187.229 128.799 186.745 128.01 186.196C126.422 185.09 124.933 183.883 123.334 182.793C122.539 182.242 121.701 181.757 120.827 181.343C119.943 180.95 118.997 180.712 118.032 180.64C116.06 180.632 114.096 180.913 112.205 181.476C110.261 182.048 108.276 182.472 106.268 182.743C105.242 182.843 104.206 182.774 103.202 182.538C102.197 182.258 101.269 181.751 100.491 181.055C98.919 179.678 97.8455 177.868 96.783 176.103C95.7985 174.277 94.6462 172.547 93.3411 170.934C92.6611 170.155 91.8432 169.508 90.9284 169.025C89.9853 168.577 88.9938 168.239 87.9734 168.018C85.9148 167.564 83.7954 167.371 81.6815 166.989C80.6165 166.812 79.57 166.537 78.555 166.17C77.5255 165.792 76.584 165.209 75.7881 164.454C75.0328 163.648 74.4541 162.692 74.0893 161.649C73.7156 160.618 73.4396 159.555 73.2647 158.472C72.8774 156.32 72.7114 154.128 72.158 152.003C71.9282 150.939 71.5402 149.915 71.007 148.965C70.4469 148.027 69.7147 147.203 68.8488 146.536C67.1334 145.158 65.1523 144.118 63.2432 142.95C62.28 142.369 61.3558 141.726 60.4763 141.025C59.5812 140.307 58.8301 139.426 58.2628 138.429C57.7164 137.409 57.4419 136.266 57.466 135.109C57.4791 133.964 57.6126 132.823 57.8644 131.706C58.3348 129.492 59.0375 127.279 59.4028 125.065C59.6117 123.95 59.6471 122.81 59.5079 121.684C59.3403 120.566 58.9649 119.488 58.4012 118.508C57.2944 116.516 55.7671 114.75 54.4224 112.852C53.7217 111.907 53.1086 110.899 52.5908 109.842C52.0279 108.79 51.7334 107.615 51.7334 106.422C51.7334 105.229 52.0279 104.054 52.5908 103.002C53.1015 101.948 53.7091 100.944 54.4058 100.003C55.7505 98.105 57.2502 96.3398 58.379 94.3532C58.9422 93.3704 59.3175 92.2914 59.4858 91.1713C59.6149 90.0449 59.5776 88.9057 59.3751 87.7902C59.0043 85.5767 58.3016 83.3632 57.8312 81.1497C57.584 80.0336 57.4524 78.8951 57.4383 77.752C57.4162 76.5947 57.6926 75.4513 58.2407 74.4318C58.8116 73.4388 59.5622 72.5606 60.4542 71.842C61.3323 71.1388 62.2566 70.4955 63.221 69.9163C65.1302 68.7487 67.0946 67.7028 68.8267 66.3304C69.6909 65.6636 70.4213 64.8393 70.9793 63.9011C71.5099 62.949 71.896 61.9233 72.1248 60.8576C72.6394 58.7326 72.8165 56.5468 73.2315 54.3942C73.4045 53.3121 73.6787 52.2486 74.0505 51.2178C74.3842 50.1627 74.965 49.2025 75.7446 48.4171C76.5243 47.6317 77.4802 47.0438 78.5328 46.7023C79.5479 46.3346 80.5944 46.0605 81.6594 45.8833C83.7733 45.5015 85.8927 45.33 87.9512 44.8596C88.9697 44.6318 89.9606 44.2941 90.9062 43.8525C91.8184 43.3659 92.6341 42.7171 93.3134 41.9378C94.6185 40.3255 95.7708 38.5952 96.7554 36.7693C97.8178 35.0041 98.8914 33.1945 100.468 31.8222C101.251 31.1165 102.187 30.603 103.202 30.3225C104.206 30.0891 105.242 30.0199 106.268 30.1178C108.264 30.3847 110.237 30.799 112.172 31.3573C114.062 31.9248 116.026 32.2082 117.999 32.1985C118.955 32.1222 119.891 31.8827 120.766 31.4901C121.643 31.0818 122.482 30.5966 123.273 30.0403C124.878 28.9336 126.366 27.7217 127.954 26.6426C128.742 26.0914 129.575 25.6082 130.445 25.1983C130.88 24.9955 131.327 24.8199 131.784 24.6726C132.016 24.6062 132.254 24.5675 132.487 24.5121L132.835 24.4347H133.195C134.15 24.3444 135.114 24.4576 136.023 24.7667L136.692 25.0046C136.908 25.0932 137.118 25.1983 137.334 25.2979C137.771 25.4861 138.164 25.7406 138.574 25.962C140.173 26.9359 141.612 28.098 143.084 29.177C144.49 30.3015 146.057 31.2098 147.732 31.872C149.44 32.34 151.238 32.3723 152.961 31.966C154.688 31.6451 156.37 31.1581 158.058 30.7542C159.729 30.2945 161.461 30.093 163.193 30.1565C164.916 30.3148 166.52 31.1029 167.698 32.37C168.812 33.6033 169.786 34.9562 170.603 36.4041C171.444 37.8041 172.23 39.2207 173.137 40.5267C173.982 41.8472 175.117 42.9565 176.457 43.7695C177.829 44.4669 179.306 44.9325 180.829 45.1474C182.329 45.4185 183.834 45.59 185.306 45.8335C186.774 46.0372 188.211 46.4238 189.583 46.9845C190.934 47.55 192.069 48.5332 192.821 49.7901C193.497 51.0273 193.962 52.3681 194.199 53.7578C194.752 56.4638 194.896 59.1532 195.593 61.6434C195.913 62.8719 196.49 64.0187 197.286 65.0079C198.095 65.9273 199.026 66.7316 200.053 67.3984C202.062 68.7542 204.176 69.8001 206.019 71.1171C206.939 71.7444 207.774 72.4884 208.503 73.3306C209.189 74.1603 209.669 75.1407 209.903 76.1915C210.096 77.2004 210.124 78.2338 209.986 79.2516C209.859 80.2192 209.675 81.1782 209.433 82.1236C208.99 83.9719 208.481 85.704 208.171 87.3862C207.811 88.9559 207.811 90.5866 208.171 92.1563C208.583 93.5079 209.217 94.7814 210.047 95.9247C211.536 98.094 212.969 99.7983 213.921 101.342C214.701 102.473 215.264 103.74 215.581 105.077C215.659 105.417 215.703 105.764 215.714 106.112C215.78 106.312 215.78 106.433 215.78 106.433Z" fill="#263238"/>
<path d="M118.442 182.5C118.519 182.5 116.477 190.8 113.882 200.993C111.286 211.187 109.117 219.437 109.04 219.421C108.962 219.404 111.004 211.12 113.6 200.921C116.195 190.723 118.386 182.455 118.442 182.5Z" fill="#263238"/>
<path d="M133.831 156.663C161.575 156.663 184.066 134.172 184.066 106.428C184.066 78.6836 161.575 56.1926 133.831 56.1926C106.087 56.1926 83.5962 78.6836 83.5962 106.428C83.5962 134.172 106.087 156.663 133.831 156.663Z" fill="white"/>
<path d="M149.559 76.819L149.666 76.9938L149.865 77.0426L166.516 81.1149L171.355 122.504L169.717 141.994C155.078 154.957 139.673 157.557 126.803 155.624C113.96 153.694 103.658 147.253 99.167 142.088L99.0312 140.14C99.0312 140.137 99.0314 140.132 99.0312 140.126C99.0309 140.11 99.0301 140.087 99.0293 140.056C99.0277 139.995 99.0254 139.905 99.0225 139.787C99.0165 139.55 99.008 139.203 98.9971 138.759C98.9752 137.871 98.9441 136.596 98.9082 135.047C98.8364 131.951 98.7443 127.762 98.6631 123.395C98.5003 114.647 98.382 105.224 98.5547 102.391C98.7239 99.6167 99.7377 96.5166 100.811 94.0045C101.345 92.7531 101.889 91.6581 102.341 90.8365C102.567 90.4257 102.768 90.0866 102.932 89.8317C103.064 89.6254 103.161 89.495 103.218 89.4254L117.343 82.3551L117.508 82.2721L117.58 82.1031L119.849 76.7467L145.769 70.6783L149.559 76.819Z" fill="#5B4947" stroke="#BDBDBD"/>
<path d="M144.185 53.3096C145.352 48.9656 146.498 44.594 146.902 40.1172C147.306 35.6404 146.935 31.0143 145.153 26.8861C144.882 26.2608 142.641 22.0828 141.966 22.188C141.484 22.2599 142.934 26.1889 142.713 26.615C140.582 30.7486 140.195 35.6017 140.809 40.2113C141.443 44.6877 142.575 49.0793 144.185 53.3041" fill="#263238"/>
<path d="M143.742 36.1551C143.532 24.8829 136.792 15.6139 125.53 16.1396L124.49 16.2503C119.453 16.7813 114.801 19.1887 111.458 22.9938C108.116 26.7988 106.328 31.7226 106.45 36.7859C106.694 46.5529 107.081 57.3437 107.695 62.5343C108.963 73.2752 119.869 73.8175 119.869 73.8175L120.373 80.8841L124.994 85.9032L146.415 72.6222L143.742 36.1551Z" fill="#FFBF9D"/>
<path d="M119.897 73.9007C119.897 73.9007 126.721 73.5852 133.466 68.2839C133.466 68.2839 131.208 78.0288 120.373 78.1893L119.897 73.9007Z" fill="#FF9A6C"/>
<path d="M112.643 45.5458C112.681 45.9497 112.876 46.3225 113.187 46.5834C113.497 46.8444 113.898 46.9726 114.303 46.9403C114.5 46.9353 114.694 46.8911 114.873 46.8101C115.053 46.7291 115.214 46.613 115.349 46.4686C115.483 46.3242 115.586 46.1545 115.654 45.9694C115.721 45.7843 115.751 45.5876 115.742 45.3908C115.702 44.9874 115.506 44.6155 115.196 44.3549C114.886 44.0942 114.486 43.9655 114.081 43.9963C113.884 44.0005 113.69 44.0443 113.51 44.125C113.33 44.2057 113.168 44.3218 113.034 44.4664C112.9 44.6109 112.796 44.7809 112.729 44.9663C112.662 45.1518 112.632 45.3488 112.643 45.5458Z" fill="#263238"/>
<path d="M109.223 41.0082C109.433 41.1853 110.507 40.2058 112.161 40.0343C113.816 39.8627 115.111 40.5876 115.271 40.3386C115.349 40.2446 115.116 39.9015 114.546 39.5694C113.779 39.1513 112.902 38.9793 112.034 39.0769C111.174 39.1655 110.365 39.5239 109.721 40.1007C109.25 40.5489 109.118 40.9252 109.223 41.0082Z" fill="#263238"/>
<path d="M127.246 44.3063C127.284 44.7103 127.48 45.083 127.791 45.344C128.101 45.605 128.502 45.7331 128.907 45.7008C129.103 45.6959 129.297 45.6516 129.477 45.5706C129.657 45.4896 129.818 45.3735 129.952 45.2291C130.086 45.0848 130.19 44.9151 130.258 44.73C130.325 44.5449 130.355 44.3482 130.345 44.1514C130.307 43.747 130.112 43.3737 129.802 43.1119C129.491 42.85 129.09 42.7206 128.685 42.7513C128.488 42.757 128.294 42.8019 128.114 42.8835C127.935 42.9652 127.773 43.0818 127.639 43.2266C127.505 43.3714 127.401 43.5415 127.334 43.7269C127.267 43.9123 127.237 44.1093 127.246 44.3063Z" fill="#263238"/>
<path d="M125.486 39.9679C125.696 40.1505 126.776 39.1655 128.425 38.994C130.074 38.8224 131.38 39.5474 131.535 39.3039C131.612 39.2043 131.385 38.8612 130.815 38.5347C130.047 38.1144 129.167 37.9423 128.297 38.0422C127.437 38.127 126.626 38.4858 125.984 39.0659C125.519 39.5086 125.387 39.8904 125.486 39.9679Z" fill="#263238"/>
<path d="M120.894 53.2985C120.894 53.2044 119.848 53.1325 118.16 53.0937C117.734 53.0937 117.325 53.055 117.225 52.7728C117.141 52.3415 117.194 51.8949 117.374 51.4945L118.282 48.1743C119.533 43.4153 120.39 39.5195 120.202 39.4697C120.014 39.4199 118.835 43.2382 117.585 48.0027L116.733 51.3506C116.524 51.8818 116.508 52.4692 116.688 53.0107C116.764 53.1549 116.871 53.2797 117.003 53.3757C117.134 53.4716 117.286 53.5361 117.446 53.5641C117.687 53.5936 117.931 53.5936 118.171 53.5641C119.859 53.4922 120.899 53.3926 120.894 53.2985Z" fill="#263238"/>
<path d="M125.879 53.9294C125.608 53.9294 125.796 55.7334 124.396 57.1721C122.996 58.6109 121.076 58.6109 121.076 58.8654C121.076 58.9761 121.535 59.1698 122.349 59.1034C123.397 59.005 124.376 58.5407 125.116 57.7919C125.822 57.0674 126.218 56.0973 126.223 55.0859C126.25 54.3278 126.001 53.9072 125.879 53.9294Z" fill="#263238"/>
<path d="M124.872 33.25C125.082 33.6816 126.709 33.2942 128.674 33.3274C130.638 33.3606 132.265 33.7203 132.475 33.2887C132.57 33.0839 132.254 32.6911 131.573 32.3203C130.671 31.8825 129.68 31.6551 128.677 31.6551C127.673 31.6551 126.683 31.8825 125.78 32.3203C125.082 32.6523 124.778 33.0452 124.872 33.25Z" fill="#263238"/>
<path d="M109.328 35.4412C109.655 35.7843 110.756 35.2752 112.123 35.1092C113.489 34.9432 114.679 35.1092 114.889 34.6776C114.989 34.4728 114.768 34.1242 114.225 33.8143C113.499 33.46 112.684 33.3292 111.883 33.4385C111.082 33.5479 110.331 33.8924 109.727 34.4286C109.295 34.8657 109.179 35.2697 109.328 35.4412Z" fill="#263238"/>
<path d="M143.704 44.2178C143.881 44.1182 150.864 41.2517 151.407 48.6448C151.949 56.0378 144.451 55.0307 144.401 54.8204C144.351 54.6101 143.704 44.2178 143.704 44.2178Z" fill="#FFBF9D"/>
<path d="M146.448 51.8598C146.481 51.8598 146.581 51.9372 146.808 52.0202C147.123 52.1294 147.468 52.1115 147.771 51.9704C148.529 51.6273 149.093 50.3435 149.032 49.0099C149.007 48.3755 148.838 47.7551 148.54 47.1948C148.453 46.9698 148.314 46.7691 148.132 46.61C147.951 46.451 147.734 46.3383 147.5 46.2818C147.35 46.2521 147.194 46.2764 147.061 46.3503C146.927 46.4243 146.824 46.5431 146.769 46.6857C146.681 46.9016 146.741 47.0454 146.703 47.062C146.664 47.0786 146.537 46.9458 146.57 46.6415C146.599 46.4544 146.691 46.2827 146.83 46.1545C147.022 45.9869 147.273 45.9015 147.527 45.9166C147.835 45.9529 148.127 46.0683 148.376 46.2517C148.626 46.435 148.823 46.6799 148.949 46.9624C149.313 47.5778 149.518 48.2737 149.547 48.9878C149.608 50.4763 148.949 51.9262 147.887 52.308C147.693 52.3809 147.486 52.4092 147.28 52.391C147.074 52.3728 146.875 52.3085 146.697 52.2028C146.476 52.0368 146.426 51.8708 146.448 51.8598Z" fill="#FF9A6C"/>
<path d="M110.44 24.2355C109.206 23.6489 112.543 19.5484 115.42 18.0267C119.731 15.7302 126.427 14.0534 130.594 14.9499C135.613 16.0567 139.863 18.2148 142.624 22.5422C145.386 26.8695 146.653 32.0325 146.841 37.1622C146.896 38.7283 146.841 40.3663 146.088 41.7386C145.164 43.4375 143.25 44.594 143.482 46.8407C143.537 47.2464 143.511 47.659 143.405 48.0543C143.298 48.4496 143.114 48.8197 142.862 49.1427C141.6 50.6701 139.863 49.425 139.016 48.119C137.207 45.3521 136.803 41.8936 136.449 38.5844C136.194 36.2381 135.945 33.8365 136.449 31.5345C136.725 30.2783 137.234 29.0775 137.445 27.8103C137.655 26.543 137.528 25.1319 136.687 24.158C136.49 23.9537 136.276 23.7685 136.045 23.6046C134.956 22.769 133.664 22.2392 132.302 22.0699C130.94 21.9007 129.558 22.0981 128.297 22.6418C124.23 24.3794 117.274 27.0355 115.326 25.7407C112.532 23.8813 111.801 22.5754 111.801 22.5754L110.44 24.2355Z" fill="#263238"/>
<path d="M98.5259 141.365C94.805 137.276 91.3101 131.844 88.6245 127.6L90.063 116.503V116.501C90.0632 116.499 90.0634 116.496 90.064 116.492C90.065 116.484 90.0667 116.471 90.0688 116.455C90.0732 116.423 90.0799 116.374 90.0884 116.311C90.1055 116.185 90.1305 116 90.1636 115.762C90.2299 115.287 90.3276 114.603 90.4517 113.77C90.6998 112.104 91.0549 109.844 91.481 107.466C91.9072 105.086 92.4033 102.594 92.9351 100.463C93.4722 98.3098 94.0305 96.5892 94.561 95.7058C95.6394 93.9105 97.6282 92.5048 99.4663 91.4587C100.378 90.9398 101.233 90.5204 101.899 90.1873C102.052 90.1106 102.198 90.0373 102.332 89.9685L98.5259 141.365Z" fill="#5B4947" stroke="#BDBDBD"/>
<g opacity="0.3">
<path opacity="0.3" d="M148.352 105.581C148.515 107.896 148.954 110.182 149.658 112.393C150.449 114.568 151.838 116.615 153.869 117.739C154.716 118.204 155.673 118.513 156.387 119.177C157.101 119.842 157.533 120.915 158.224 121.695C159.09 122.553 160.157 123.18 161.329 123.516C164.625 124.725 168.123 125.288 171.632 125.176C171.743 123.992 171.749 119.642 171.859 118.453L148.352 105.581Z" fill="black"/>
</g>
<mask id="path-94-inside-1_2_948" fill="white">
<path d="M166.973 80.7126C166.973 80.7126 174.599 82.9704 176.834 86.2187C179.07 89.467 183.027 102.062 183.84 104.397C184.653 106.732 183.94 112.144 182.418 116.018C180.896 119.891 178.251 123.261 173.686 123.765C169.12 124.269 161.904 121.634 160.277 119.891C158.651 118.148 157.981 114.291 157.981 114.291C160.008 113.936 162.008 113.435 163.963 112.792"/>
</mask>
<path d="M166.973 80.7126C166.973 80.7126 174.599 82.9704 176.834 86.2187C179.07 89.467 183.027 102.062 183.84 104.397C184.653 106.732 183.94 112.144 182.418 116.018C180.896 119.891 178.251 123.261 173.686 123.765C169.12 124.269 161.904 121.634 160.277 119.891C158.651 118.148 157.981 114.291 157.981 114.291C160.008 113.936 162.008 113.435 163.963 112.792" fill="#5B4947"/>
<path d="M157.981 114.291L157.808 113.306L156.825 113.479L156.996 114.462L157.981 114.291ZM166.973 80.7126C166.689 81.6715 166.689 81.6715 166.689 81.6714C166.689 81.6714 166.689 81.6714 166.689 81.6714C166.689 81.6714 166.689 81.6715 166.69 81.6716C166.69 81.6717 166.691 81.672 166.693 81.6724C166.695 81.6733 166.7 81.6747 166.707 81.6766C166.719 81.6805 166.739 81.6865 166.766 81.6947C166.819 81.711 166.898 81.7357 167.001 81.7685C167.206 81.8341 167.504 81.9322 167.869 82.06C168.601 82.3162 169.598 82.6902 170.66 83.1615C171.724 83.6342 172.836 84.1967 173.806 84.8267C174.788 85.4647 175.559 86.1298 176.011 86.7856L177.658 85.6517C176.992 84.6834 175.971 83.8483 174.895 83.1493C173.806 82.4424 172.592 81.8314 171.471 81.3336C170.347 80.8345 169.298 80.441 168.53 80.1723C168.146 80.0378 167.83 79.934 167.61 79.8635C167.5 79.8283 167.413 79.8013 167.353 79.7829C167.323 79.7737 167.3 79.7667 167.284 79.7618C167.276 79.7594 167.27 79.7575 167.265 79.7561C167.263 79.7555 167.261 79.7549 167.26 79.7546C167.259 79.7544 167.259 79.7542 167.258 79.7541C167.258 79.754 167.258 79.7539 167.258 79.7539C167.257 79.7538 167.257 79.7538 166.973 80.7126ZM176.011 86.7856C176.504 87.5031 177.137 88.812 177.835 90.4859C178.523 92.1367 179.246 94.07 179.928 95.9858C181.308 99.8596 182.465 103.489 182.896 104.726L184.784 104.068C184.402 102.97 183.173 99.1341 181.812 95.3146C181.125 93.3838 180.388 91.4134 179.681 89.7162C178.983 88.042 178.282 86.5585 177.658 85.6517L176.011 86.7856ZM182.896 104.726C183.222 105.663 183.276 107.405 183.012 109.506C182.754 111.563 182.214 113.802 181.487 115.652L183.349 116.383C184.144 114.359 184.721 111.956 184.997 109.755C185.267 107.598 185.271 105.466 184.784 104.068L182.896 104.726ZM181.487 115.652C180.026 119.372 177.604 122.327 173.576 122.771L173.795 124.759C178.897 124.196 181.766 120.411 183.349 116.383L181.487 115.652ZM173.576 122.771C171.494 123.001 168.702 122.513 166.181 121.717C164.933 121.323 163.785 120.865 162.861 120.407C161.909 119.935 161.288 119.508 161.009 119.209L159.546 120.574C160.081 121.146 160.971 121.702 161.973 122.199C163.002 122.709 164.249 123.205 165.579 123.624C168.213 124.456 171.312 125.033 173.795 124.759L173.576 122.771ZM161.009 119.209C160.358 118.512 159.837 117.299 159.473 116.138C159.298 115.579 159.17 115.069 159.086 114.7C159.044 114.516 159.014 114.367 158.994 114.267C158.984 114.216 158.977 114.178 158.972 114.153C158.97 114.141 158.968 114.132 158.967 114.126C158.967 114.123 158.966 114.121 158.966 114.12C158.966 114.12 158.966 114.12 158.966 114.12C158.966 114.12 158.966 114.12 158.966 114.12C158.966 114.12 158.966 114.12 158.966 114.12C158.966 114.12 158.966 114.12 157.981 114.291C156.996 114.462 156.996 114.462 156.996 114.463C156.996 114.463 156.996 114.463 156.996 114.463C156.996 114.463 156.996 114.464 156.996 114.464C156.996 114.465 156.996 114.466 156.997 114.468C156.997 114.47 156.998 114.474 156.999 114.479C157 114.488 157.003 114.501 157.006 114.517C157.012 114.549 157.02 114.595 157.032 114.654C157.055 114.771 157.089 114.938 157.136 115.142C157.228 115.55 157.37 116.114 157.565 116.737C157.942 117.94 158.57 119.527 159.546 120.574L161.009 119.209ZM158.154 115.276C160.228 114.913 162.274 114.4 164.275 113.742L163.65 111.842C161.741 112.47 159.788 112.959 157.808 113.306L158.154 115.276Z" fill="#BDBDBD" mask="url(#path-94-inside-1_2_948)"/>
<path d="M163.963 112.83L163.869 112.869L163.581 112.974C163.327 113.063 162.945 113.19 162.441 113.339C160.986 113.774 159.508 114.129 158.014 114.402L158.075 114.319C158.261 115.269 158.521 116.204 158.855 117.113C159.037 117.629 159.258 118.13 159.514 118.613C159.776 119.129 160.122 119.598 160.538 120.002C161.006 120.404 161.523 120.746 162.076 121.02C162.66 121.327 163.261 121.602 163.874 121.845C165.191 122.371 166.545 122.8 167.925 123.128C169.414 123.494 170.94 123.689 172.474 123.709C172.873 123.713 173.272 123.695 173.669 123.654C174.07 123.608 174.467 123.538 174.859 123.444C175.663 123.263 176.435 122.963 177.15 122.553C178.638 121.692 179.888 120.473 180.785 119.006C181.734 117.482 182.461 115.832 182.944 114.103C183.337 112.775 183.632 111.419 183.823 110.047C184.029 108.718 184.096 107.372 184.023 106.029C183.979 105.383 183.847 104.747 183.63 104.137C183.419 103.517 183.215 102.903 183.015 102.294L181.826 98.7358C181.04 96.4227 180.265 94.2369 179.491 92.206C178.81 90.3163 177.991 88.4795 177.039 86.711C176.599 85.9594 176.012 85.3043 175.313 84.7853C174.703 84.3004 174.055 83.8655 173.376 83.4849C172.284 82.8621 171.155 82.3077 169.995 81.8248C169.043 81.4319 168.29 81.1552 167.781 80.9726L167.2 80.7678C167.131 80.7494 167.064 80.7234 167.001 80.6904C167.071 80.6994 167.139 80.7161 167.206 80.7402L167.798 80.9172C168.318 81.0833 169.082 81.3433 170.044 81.7196C171.215 82.1816 172.355 82.7157 173.459 83.3189C174.151 83.6995 174.811 84.1343 175.434 84.6193C176.154 85.1476 176.76 85.8158 177.216 86.5838C178.19 88.3619 179.026 90.2119 179.717 92.1175C180.509 94.1428 181.289 96.3342 182.08 98.6473C182.473 99.8038 182.872 100.994 183.281 102.205C183.486 102.809 183.691 103.423 183.895 104.043C184.123 104.674 184.262 105.333 184.31 106.002C184.389 107.364 184.324 108.731 184.117 110.08C183.921 111.467 183.623 112.837 183.226 114.18C182.732 115.938 181.986 117.616 181.012 119.161C180.09 120.667 178.803 121.917 177.271 122.796C176.533 123.216 175.737 123.524 174.909 123.709C174.506 123.805 174.097 123.878 173.686 123.925C173.276 123.925 172.867 123.997 172.468 123.981C170.914 123.952 169.367 123.748 167.859 123.372C166.466 123.038 165.101 122.6 163.775 122.06C163.157 121.811 162.553 121.528 161.965 121.214C161.396 120.929 160.864 120.574 160.383 120.157C159.954 119.733 159.599 119.241 159.331 118.701C159.074 118.211 158.854 117.703 158.673 117.18C158.348 116.254 158.095 115.305 157.915 114.341V114.269H157.986C159.934 113.931 161.428 113.55 162.441 113.273L163.592 112.946L163.885 112.863C163.93 112.83 163.963 112.825 163.963 112.83Z" fill="#263238"/>
<path d="M177.957 108.752C177.902 108.752 177.725 107.811 177.089 106.406C176.253 104.578 175.086 102.922 173.647 101.519C172.849 100.76 171.947 100.119 170.968 99.6158L170.299 99.317C170.077 99.2174 169.845 99.1731 169.635 99.1012C169.237 98.9758 168.827 98.8905 168.412 98.8466L168.135 98.8079H167.382C167.123 98.804 166.863 98.8262 166.608 98.8743C166.385 98.919 166.159 98.943 165.933 98.9462C166.142 98.8594 166.361 98.7981 166.586 98.7636C166.843 98.6905 167.109 98.6515 167.377 98.6474H167.875H168.146L168.434 98.6806C168.863 98.7105 169.287 98.7846 169.701 98.9019C169.933 98.9601 170.162 99.0303 170.387 99.1122L171.085 99.4111C172.1 99.9124 173.033 100.566 173.851 101.348C175.322 102.769 176.487 104.475 177.277 106.361C177.418 106.682 177.54 107.011 177.642 107.346C177.727 107.598 177.798 107.855 177.852 108.116C177.907 108.324 177.943 108.537 177.957 108.752Z" fill="#263238"/>
<path d="M182.119 101.907C181.804 101.101 181.419 100.325 180.968 99.5881C179.821 97.8377 178.105 96.5376 176.109 95.9081C173.768 95.1943 171.494 95.4156 169.906 95.565L168.008 95.7919C167.778 95.8335 167.544 95.8538 167.311 95.8528C167.529 95.7674 167.758 95.7097 167.991 95.6813C168.434 95.5927 169.098 95.4765 169.884 95.3658C171.981 94.9993 174.133 95.0899 176.192 95.6315C177.32 95.9703 178.367 96.5352 179.269 97.2916C180.008 97.9194 180.639 98.6633 181.139 99.494C181.481 100.039 181.755 100.625 181.953 101.237C182.034 101.453 182.089 101.678 182.119 101.907Z" fill="#263238"/>
<path d="M176.369 93.7223C173.386 93.019 170.267 93.1414 167.349 94.0765C167.731 93.8268 168.152 93.6399 168.594 93.5231C169.641 93.2012 170.725 93.0152 171.82 92.9697C172.915 92.9309 174.01 93.0313 175.079 93.2686C175.529 93.3546 175.964 93.5075 176.369 93.7223Z" fill="#263238"/>
<path d="M164.029 82.6162C164.073 82.6162 163.962 83.3965 163.874 84.6471C163.642 87.8504 163.918 91.0703 164.693 94.1872L164.494 94.2536C164.267 93.6172 164.09 93.0971 163.974 92.7318C163.901 92.5538 163.849 92.3682 163.819 92.1785C163.931 92.3503 164.021 92.5364 164.084 92.7318C164.234 93.0805 164.438 93.5896 164.693 94.2204L164.494 94.2813C164.056 92.7501 163.765 91.1807 163.625 89.5942C163.48 87.9532 163.495 86.3019 163.669 84.6637C163.741 84.0384 163.824 83.5569 163.891 83.1862C163.909 82.9906 163.956 82.7986 164.029 82.6162Z" fill="#263238"/>
<path d="M153.244 68.4222C153.244 68.4222 149.287 68.4222 148.789 73.1756C148.407 76.8279 148.789 80.3695 148.789 81.9742C148.789 83.579 148.086 89.2622 148.086 89.2622C148.086 89.2622 145.386 91.6582 145.43 94.5358C145.474 97.4133 147.533 98.3098 147.533 98.3098C147.188 99.2015 147.112 100.175 147.314 101.109C147.517 102.044 147.989 102.898 148.673 103.567C148.673 103.567 147.528 106.217 148.468 107.994C149.01 108.877 149.857 109.533 150.848 109.837C150.685 110.186 150.6 110.567 150.597 110.952C150.594 111.338 150.674 111.719 150.832 112.071C150.989 112.423 151.22 112.737 151.509 112.992C151.799 113.247 152.139 113.437 152.508 113.55C153.837 113.961 155.23 114.132 156.619 114.053L159.574 113.998L162.175 115.437C162.175 115.437 166.635 113.494 166.746 110.866L166.862 108.237C166.862 108.237 165.584 103.921 165.479 102.538C165.374 101.154 166.508 97.8505 165.822 96.3674C165.136 94.8844 162.74 94.0101 162.967 91.9405C163.193 89.8709 162.74 88.7199 161.71 87.5744C160.681 86.4289 156.138 84.149 156.138 84.149C156.138 84.149 154.97 80.8288 154.97 78.5544C154.97 76.2801 157.245 69.291 153.244 68.4222Z" fill="#FFBF9D"/>
<path d="M155.911 85.0122C155.571 85.2906 155.199 85.5283 154.804 85.7205C154.107 86.13 153.144 86.6723 152.037 87.2589C150.931 87.8455 149.968 88.3656 149.27 88.7253C148.894 88.9531 148.493 89.1387 148.075 89.2787C148.414 88.9972 148.786 88.7575 149.182 88.5649C149.879 88.1554 150.842 87.6131 151.949 87.0265C153.056 86.4399 154.018 85.9197 154.716 85.56C155.092 85.3322 155.493 85.1484 155.911 85.0122Z" fill="#FF9A6C"/>
<path d="M158.512 93.9603C158.512 93.9603 158.401 94.0875 158.163 94.2702C157.833 94.5295 157.489 94.7715 157.134 94.9951C155.965 95.7439 154.723 96.3707 153.426 96.8655C152.129 97.3685 150.785 97.7393 149.414 97.9722C148.861 98.0552 148.457 98.105 148.164 98.1216C148.01 98.1504 147.852 98.1504 147.699 98.1216C147.699 98.0774 148.341 97.9888 149.359 97.773C150.702 97.4909 152.021 97.1061 153.304 96.622C154.585 96.1264 155.825 95.5306 157.012 94.8401C157.497 94.5215 157.997 94.2278 158.512 93.9603Z" fill="#FF9A6C"/>
<path d="M161.909 91.1104C161.981 91.1381 161.832 91.6638 161.356 92.0677C160.88 92.4717 160.371 92.5934 160.354 92.5215C160.338 92.4495 160.747 92.2393 161.162 91.8519C161.577 91.4645 161.832 91.0772 161.909 91.1104Z" fill="#FF9A6C"/>
<path d="M160.277 101.79C159.745 102.049 159.189 102.253 158.617 102.399C157.255 102.804 155.869 103.12 154.466 103.345C153.064 103.574 151.648 103.707 150.228 103.744C149.639 103.789 149.047 103.771 148.462 103.689C149.044 103.606 149.63 103.558 150.217 103.545C151.323 103.467 152.79 103.323 154.422 103.063C156.055 102.803 157.51 102.466 158.561 102.2C159.125 102.03 159.698 101.893 160.277 101.79Z" fill="#FF9A6C"/>
<path d="M163.896 101.154C163.98 100.866 164.082 100.583 164.201 100.307C164.42 99.6315 164.494 98.9166 164.417 98.2102C164.328 97.5042 164.087 96.8261 163.708 96.2236C163.529 95.983 163.365 95.7316 163.216 95.471C163.216 95.4433 163.531 95.6481 163.88 96.1074C164.327 96.7144 164.61 97.4273 164.699 98.1761C164.788 98.925 164.681 99.6842 164.389 100.379C164.162 100.883 163.924 101.154 163.896 101.154Z" fill="#FF9A6C"/>
<path d="M160.498 109.803C160.045 109.971 159.573 110.082 159.093 110.135C157.943 110.317 156.781 110.407 155.618 110.407C154.451 110.405 153.287 110.306 152.137 110.113C151.656 110.059 151.184 109.946 150.731 109.776C151.212 109.784 151.691 109.83 152.165 109.914C153.311 110.044 154.464 110.112 155.618 110.119C156.769 110.116 157.92 110.054 159.065 109.931C159.539 109.85 160.018 109.808 160.498 109.803Z" fill="#FF9A6C"/>
<path d="M153.46 78.6097C153.46 78.6429 153.277 78.7923 152.906 78.9251C152.418 79.0882 151.9 79.141 151.389 79.0798C150.878 79.0186 150.387 78.8448 149.951 78.571C149.619 78.3552 149.464 78.167 149.486 78.1393C150.098 78.4466 150.75 78.6664 151.423 78.7923C152.107 78.8287 152.793 78.7672 153.46 78.6097Z" fill="#FF9A6C"/>
<path d="M164.715 101.469C164.765 101.606 164.787 101.751 164.781 101.896C164.781 102.289 164.735 102.681 164.643 103.063C164.538 103.545 164.355 104.104 164.178 104.723C163.964 105.372 163.894 106.059 163.973 106.738C164.067 107.44 164.593 108.005 164.676 108.719C164.733 109.322 164.578 109.926 164.239 110.429C164.033 110.762 163.794 111.073 163.525 111.358C163.337 111.563 163.221 111.663 163.204 111.652C163.188 111.64 163.586 111.165 164.062 110.329C164.348 109.858 164.471 109.305 164.41 108.757C164.344 108.154 163.813 107.59 163.686 106.787C163.601 106.067 163.683 105.336 163.923 104.651C164.117 104.026 164.316 103.478 164.444 102.991C164.571 102.491 164.662 101.983 164.715 101.469Z" fill="#FF9A6C"/>
<path d="M166.204 104.945C166.294 105.107 166.357 105.283 166.392 105.465C166.491 105.802 166.624 106.3 166.746 106.92C166.896 107.649 166.985 108.39 167.011 109.134C167.059 110.064 166.888 110.993 166.513 111.845C166.078 112.662 165.501 113.394 164.809 114.009C164.259 114.51 163.672 114.971 163.055 115.387C162.529 115.747 162.086 116.012 161.777 116.184C161.624 116.287 161.458 116.369 161.284 116.427C161.256 116.388 161.92 115.968 162.944 115.221C163.538 114.789 164.104 114.319 164.637 113.815C165.295 113.214 165.845 112.505 166.264 111.718C166.619 110.904 166.787 110.021 166.757 109.134C166.744 108.401 166.677 107.671 166.558 106.948C166.342 105.714 166.159 104.956 166.204 104.945Z" fill="#263238"/>
<path d="M124.452 86.5229C124.221 86.3875 124.006 86.2279 123.81 86.047L122.15 84.6581L120.999 83.6897C120.802 83.5056 120.582 83.3475 120.346 83.2193C120.231 83.1606 120.104 83.1299 119.975 83.1299C119.846 83.1299 119.719 83.1606 119.604 83.2193C119.128 83.4683 118.807 84.077 118.403 84.5861C117.999 85.0952 117.601 85.6929 117.18 86.2463C116.516 87.1427 115.869 88.0004 115.277 88.7973L114.917 89.2732L115.033 88.6866C115.35 87.041 115.812 85.4263 116.411 83.8612C116.632 83.3079 116.832 82.832 116.964 82.5276C117.027 82.3641 117.11 82.2097 117.213 82.0683C117.176 82.2371 117.122 82.402 117.053 82.5608C116.937 82.8762 116.765 83.3355 116.566 83.9221C116.025 85.4951 115.601 87.1062 115.299 88.742L115.05 88.6313L116.948 86.0747L118.171 84.4146L118.757 83.6343C118.944 83.3572 119.194 83.1293 119.488 82.9703C119.642 82.9029 119.809 82.8713 119.977 82.878C120.144 82.8847 120.308 82.9295 120.456 83.009C120.708 83.1506 120.94 83.3235 121.148 83.5237L122.255 84.5197L123.871 85.9751C124.078 86.1421 124.273 86.3253 124.452 86.5229Z" fill="#263238"/>
<path d="M147.815 81.847C147.751 81.9197 147.679 81.9847 147.6 82.0407L146.947 82.5498L144.506 84.3814L136.366 90.3744L136.244 90.463L136.161 90.3357C136.095 90.2361 136.029 90.1254 135.957 90.0203L131.873 83.568L132.022 83.6178C130.448 84.2429 128.931 85 127.484 85.881C126.964 86.1965 126.56 86.4344 126.284 86.6392C126.149 86.7405 126.005 86.8277 125.852 86.8993C125.969 86.7772 126.099 86.6677 126.239 86.5728C126.505 86.3791 126.898 86.0969 127.413 85.7593C128.84 84.8301 130.352 84.0371 131.928 83.3909L132.022 83.3521L132.077 83.4351C133.278 85.3 134.689 87.508 136.2 89.8653C136.272 89.9705 136.338 90.0811 136.405 90.1807L136.195 90.142L144.39 84.2209L146.88 82.4557L147.566 81.9908C147.727 81.8857 147.81 81.8359 147.815 81.847Z" fill="#263238"/>
<path d="M98.1497 103.855C98.1749 103.982 98.186 104.112 98.1829 104.242C98.1829 104.53 98.1829 104.9 98.2105 105.349C98.2105 106.35 98.2603 107.75 98.288 109.466C98.3544 112.941 98.4927 117.766 98.6754 123.051C98.858 128.336 98.9631 133.161 98.9742 136.642C98.9742 138.385 98.9742 139.79 98.9742 140.764C98.9742 141.224 98.9742 141.6 98.9465 141.871C98.9525 142.003 98.9432 142.135 98.9188 142.264C98.9108 142.133 98.9108 142.002 98.9188 141.871C98.9188 141.589 98.9188 141.213 98.8856 140.764C98.8856 139.757 98.8414 138.357 98.8082 136.647C98.7473 133.167 98.6034 128.347 98.4263 123.057C98.2493 117.766 98.1386 112.946 98.1275 109.466C98.1275 107.728 98.1275 106.317 98.1275 105.349C98.1275 104.884 98.1275 104.513 98.1275 104.242C98.1266 104.112 98.134 103.983 98.1497 103.855Z" fill="#263238"/>
<path d="M124.634 153.835C124.616 153.785 124.605 153.733 124.601 153.68C124.601 153.559 124.601 153.404 124.551 153.21C124.507 152.773 124.446 152.17 124.374 151.4C124.219 149.829 124.042 147.527 123.865 144.732C123.688 141.938 123.538 138.551 123.444 134.821C123.35 131.092 123.339 126.98 123.444 122.647C123.55 118.314 123.743 114.236 123.998 110.512C124.252 106.788 124.551 103.434 124.85 100.629C125.149 97.8229 125.403 95.5485 125.647 93.988C125.757 93.2189 125.84 92.6212 125.901 92.1896C125.935 91.9959 125.957 91.841 125.979 91.7192C125.982 91.6661 125.993 91.6138 126.012 91.5643C126.021 91.6174 126.021 91.6716 126.012 91.7248C126.012 91.8465 125.984 92.0014 125.968 92.1951C125.918 92.6267 125.852 93.2299 125.763 93.9991C125.575 95.5707 125.331 97.8395 125.06 100.64C124.789 103.44 124.507 106.799 124.269 110.523C124.031 114.247 123.848 118.347 123.749 122.653C123.649 126.958 123.677 131.058 123.749 134.788C123.821 138.518 123.959 141.871 124.114 144.688C124.269 147.505 124.407 149.79 124.529 151.362C124.579 152.131 124.623 152.74 124.651 153.177C124.651 153.37 124.651 153.525 124.678 153.647C124.669 153.711 124.654 153.774 124.634 153.835Z" fill="#263238"/>
<path d="M108.144 63.2592L107.557 63.6466L105.831 64.7533C105.067 65.2459 104.171 65.9486 103.119 66.7234C102.566 67.1218 102.057 67.6032 101.459 68.0902L100.557 68.8483C100.247 69.1139 99.9539 69.4017 99.6384 69.706C96.5779 72.5611 93.8894 75.7906 91.6367 79.3181L90.6517 80.9007C90.3031 81.4264 90.0374 82.0075 89.7165 82.5608C89.3955 83.1142 89.0801 83.7119 88.7924 84.3206C88.5046 84.9293 88.239 85.5546 87.9402 86.1854C87.8018 86.5009 87.6469 86.8107 87.5141 87.1372C87.3813 87.4637 87.2651 87.7957 87.1378 88.1333C86.8888 88.7973 86.6231 89.4669 86.3797 90.1586C85.9702 91.5587 85.45 92.9753 85.1401 94.486C83.5625 101.022 83.2992 107.807 84.3654 114.446C85.7528 122.995 89.3327 131.039 94.7558 137.792C100.179 144.545 107.26 149.777 115.308 152.977C123.356 156.177 132.097 157.237 140.676 156.052C149.256 154.866 157.382 151.477 164.261 146.215C165.998 144.88 167.65 143.439 169.208 141.899L170.315 140.726C170.691 140.338 171.057 139.945 171.422 139.53L172.473 138.319C172.805 137.898 173.132 137.477 173.464 137.062C178.469 130.615 181.809 123.034 183.187 114.988C183.51 113.121 183.73 111.236 183.845 109.344C183.9 108.409 183.9 107.485 183.934 106.577C183.967 105.67 183.867 104.746 183.834 103.844C183.834 103.395 183.795 102.942 183.779 102.493C183.762 102.045 183.679 101.608 183.635 101.165C183.524 100.285 183.419 99.411 183.314 98.5478C183.209 97.6845 182.982 96.8434 182.816 96.0022C182.677 95.1682 182.492 94.3424 182.262 93.5287L181.576 91.1326C181.469 90.7395 181.337 90.3533 181.183 89.976C181.039 89.5942 180.896 89.2124 180.757 88.8361C180.464 88.089 180.204 87.3254 179.888 86.6226C179.573 85.9198 179.23 85.206 178.903 84.5142C176.497 79.5112 173.268 74.9472 169.352 71.012C166.385 68.0638 163.074 65.4832 159.491 63.3256L157.377 62.1138C157.058 61.9267 156.729 61.7568 156.392 61.6047L155.463 61.162L153.802 60.3762C153.304 60.1216 152.812 59.9777 152.397 59.8228L150.471 59.0813L149.818 58.8157L150.482 59.0536L152.414 59.773C152.834 59.939 153.327 60.0829 153.83 60.3264L155.49 61.1011L156.425 61.5438C156.764 61.692 157.095 61.8583 157.416 62.0418L159.535 63.2482C163.142 65.3921 166.474 67.9677 169.457 70.9179C173.397 74.8503 176.648 79.4164 179.075 84.4257C179.401 85.1285 179.733 85.8313 180.071 86.5507C180.409 87.27 180.624 88.0282 180.945 88.7641L181.377 89.9041C181.531 90.2832 181.662 90.6713 181.77 91.0662C182.002 91.863 182.235 92.6599 182.467 93.4733C182.707 94.2901 182.901 95.1196 183.048 95.958C183.214 96.7991 183.413 97.6181 183.557 98.509C183.701 99.3999 183.768 100.258 183.878 101.143C183.928 101.586 184 102.028 184.028 102.477C184.055 102.925 184.066 103.379 184.083 103.832C184.116 104.74 184.166 105.653 184.188 106.599C184.21 107.546 184.16 108.453 184.1 109.366C183.534 119.496 179.9 129.214 173.68 137.228L172.672 138.49L171.61 139.713C171.267 140.128 170.896 140.527 170.503 140.914L169.396 142.098C167.829 143.647 166.165 145.096 164.416 146.437C157.504 151.721 149.34 155.123 140.721 156.313C132.102 157.503 123.321 156.44 115.236 153.226C107.15 150.013 100.035 144.759 94.584 137.977C89.1331 131.195 85.5324 123.117 84.133 114.529C83.5715 111.068 83.3859 107.555 83.5796 104.054C83.7191 100.824 84.1845 97.6167 84.9686 94.4805C85.2784 92.9642 85.8042 91.5476 86.2136 90.1365C86.4627 89.4503 86.7338 88.7752 86.9884 88.1056C87.1156 87.7736 87.2429 87.4416 87.3647 87.1096C87.4864 86.7775 87.6579 86.4732 87.7963 86.1522C88.0896 85.5214 88.3497 84.9016 88.654 84.2874C88.9584 83.6731 89.2849 83.1032 89.5892 82.5221C89.8936 81.9411 90.1813 81.3656 90.5299 80.8343L91.526 79.2517C93.7906 75.7187 96.5004 72.4919 99.5886 69.6507C99.9041 69.3574 100.197 69.0586 100.507 68.793L101.415 68.0348C102.012 67.5534 102.522 67.0775 103.075 66.6791C104.154 65.9044 105.039 65.2126 105.809 64.7257L107.552 63.6189C107.928 63.3755 108.144 63.2592 108.144 63.2592Z" fill="#263238"/>
</svg>
